<?xml version="1.0" encoding="UTF-8" standalone="no"?>
<svg
   xmlns:dc="http://purl.org/dc/elements/1.1/"
   xmlns:cc="http://creativecommons.org/ns#"
   xmlns:rdf="http://www.w3.org/1999/02/22-rdf-syntax-ns#"
   xmlns:svg="http://www.w3.org/2000/svg"
   xmlns="http://www.w3.org/2000/svg"
   xmlns:sodipodi="http://sodipodi.sourceforge.net/DTD/sodipodi-0.dtd"
   xmlns:inkscape="http://www.inkscape.org/namespaces/inkscape"
   version="1.1"
   width="841.88977"
   height="595.27557"
   id="svg2466"
   viewBox="0 0 841.88977 595.27557"
   sodipodi:docname="IFAL horizontal.svg"
   inkscape:version="0.92.3 (2405546, 2018-03-11)"
   inkscape:export-filename="C:\Users\IFAL\Documents\Visual ID - IFAL\IFAL_GERAL\IFAL Horizontal.svg.png"
   inkscape:export-xdpi="300"
   inkscape:export-ydpi="300">
  <metadata
     id="metadata2472">
    <rdf:RDF>
      <cc:Work
         rdf:about="">
        <dc:format>image/svg+xml</dc:format>
        <dc:type
           rdf:resource="http://purl.org/dc/dcmitype/StillImage" />
        <dc:title></dc:title>
      </cc:Work>
    </rdf:RDF>
  </metadata>
  <defs
     id="defs2470" />
  <sodipodi:namedview
     pagecolor="#ffffff"
     bordercolor="#666666"
     borderopacity="1"
     objecttolerance="10"
     gridtolerance="10"
     guidetolerance="10"
     inkscape:pageopacity="0"
     inkscape:pageshadow="2"
     inkscape:window-width="1277"
     inkscape:window-height="676"
     id="namedview2468"
     showgrid="false"
     inkscape:zoom="0.56067209"
     inkscape:cx="351.03337"
     inkscape:cy="315.2"
     inkscape:window-x="0"
     inkscape:window-y="0"
     inkscape:window-maximized="0"
     inkscape:current-layer="svg2466" />
  <path
     d="m 199.36912,254.78686 c 0,1.6519 -1.3405,2.9869 -2.9893,2.9869 h -24.7235 c -1.6543,0 -2.9869,-1.335 -2.9869,-2.9869 v -24.7204 c 0,-1.6543 1.3326,-2.9869 2.9869,-2.9869 h 24.7235 c 1.6488,0 2.9893,1.3326 2.9893,2.9869 z"
     style="fill:#299626;fill-rule:evenodd"
     id="path2426"
     inkscape:connector-curvature="0" />
  <path
     d="m 236.20542,254.78686 c 0,1.6519 -1.3412,2.9869 -2.99,2.9869 h -24.7204 c -1.6543,0 -2.9869,-1.335 -2.9869,-2.9869 v -24.7204 c 0,-1.6543 1.3326,-2.9869 2.9869,-2.9869 h 24.7204 c 1.6488,0 2.99,1.3326 2.99,2.9869 z"
     style="fill:#299626;fill-rule:evenodd"
     id="path2428"
     inkscape:connector-curvature="0" />
  <path
     d="m 236.20542,328.46106 c 0,1.652 -1.3412,2.987 -2.99,2.987 h -24.7204 c -1.6543,0 -2.9869,-1.335 -2.9869,-2.987 v -24.7203 c 0,-1.6512 1.3326,-2.9893 2.9869,-2.9893 h 24.7204 c 1.6488,0 2.99,1.3381 2.99,2.9893 z"
     style="fill:#299626;fill-rule:evenodd"
     id="path2430"
     inkscape:connector-curvature="0" />
  <path
     d="m 162.53112,291.60136 c 0,1.6512 -1.3357,2.987 -2.9869,2.987 h -24.7235 c -1.6512,0 -2.9869,-1.3358 -2.9869,-2.987 v -24.7211 c 0,-1.6512 1.3357,-2.9893 2.9869,-2.9893 h 24.7235 c 1.6512,0 2.9869,1.3381 2.9869,2.9893 z"
     style="fill:#299626;fill-rule:evenodd"
     id="path2432"
     inkscape:connector-curvature="0" />
  <path
     d="m 199.36912,291.60136 c 0,1.6512 -1.3405,2.987 -2.9893,2.987 h -24.7235 c -1.6543,0 -2.9869,-1.3358 -2.9869,-2.987 v -24.7211 c 0,-1.6512 1.3326,-2.9893 2.9869,-2.9893 h 24.7235 c 1.6488,0 2.9893,1.3381 2.9893,2.9893 z"
     style="fill:#299626;fill-rule:evenodd"
     id="path2434"
     inkscape:connector-curvature="0" />
  <path
     d="m 162.53112,328.46106 c 0,1.652 -1.3357,2.987 -2.9869,2.987 h -24.7235 c -1.6512,0 -2.9869,-1.335 -2.9869,-2.987 v -24.7203 c 0,-1.6512 1.3357,-2.9893 2.9869,-2.9893 h 24.7235 c 1.6512,0 2.9869,1.3381 2.9869,2.9893 z"
     style="fill:#299626;fill-rule:evenodd"
     id="path2436"
     inkscape:connector-curvature="0" />
  <path
     d="m 199.36912,328.46106 c 0,1.652 -1.3405,2.987 -2.9893,2.987 h -24.7235 c -1.6543,0 -2.9869,-1.335 -2.9869,-2.987 v -24.7203 c 0,-1.6512 1.3326,-2.9893 2.9869,-2.9893 h 24.7235 c 1.6488,0 2.9893,1.3381 2.9893,2.9893 z"
     style="fill:#299626;fill-rule:evenodd"
     id="path2438"
     inkscape:connector-curvature="0" />
  <path
     d="m 162.53112,365.33486 c 0,1.6512 -1.3357,2.9893 -2.9869,2.9893 h -24.7235 c -1.6512,0 -2.9869,-1.3381 -2.9869,-2.9893 v -24.7211 c 0,-1.6512 1.3357,-2.9893 2.9869,-2.9893 h 24.7235 c 1.6512,0 2.9869,1.3381 2.9869,2.9893 z"
     style="fill:#299626;fill-rule:evenodd"
     id="path2440"
     inkscape:connector-curvature="0" />
  <path
     d="m 199.36912,365.33486 c 0,1.6512 -1.3405,2.9893 -2.9893,2.9893 h -24.7235 c -1.6543,0 -2.9869,-1.3381 -2.9869,-2.9893 v -24.7211 c 0,-1.6512 1.3326,-2.9893 2.9869,-2.9893 h 24.7235 c 1.6488,0 2.9893,1.3381 2.9893,2.9893 z"
     style="fill:#299626;fill-rule:evenodd"
     id="path2442"
     inkscape:connector-curvature="0" />
  <path
     d="m 164.06552,242.42786 c 0,9.323 -7.5558,16.8818 -16.8865,16.8818 -9.3207,0 -16.8819,-7.5588 -16.8819,-16.8818 0,-9.3285 7.5612,-16.8843 16.8819,-16.8843 9.3307,0 16.8865,7.5558 16.8865,16.8843 z"
     style="fill:#c90015;fill-rule:evenodd"
     id="path2444"
     inkscape:connector-curvature="0" />
  <text
     x="257.73001"
     y="376.03894"
     id="text2454">
    <tspan
       font-size="31.5000"
       id="tspan2452"
       style="font-size:31.5px;font-family:'Open Sans';fill:#1b1918">Alagoas</tspan>
  </text>
  <path
     d="M 0,219.3287 V 503.3288 H 841.8898 V 219.3287 Z"
     style="fill:none"
     id="path2464"
     inkscape:connector-curvature="0" />
  <text
     id="text6183"
     y="331.85275"
     x="257.73901">
    <tspan
       style="font-style:normal;font-variant:normal;font-weight:bold;font-stretch:normal;font-size:43px;font-family:'Open Sans';-inkscape-font-specification:'Open Sans, Bold';font-variant-ligatures:normal;font-variant-caps:normal;font-variant-numeric:normal;font-feature-settings:normal;text-align:start;writing-mode:lr-tb;text-anchor:start;fill:#1b1918"
       id="tspan6181"
       font-size="43.0000">INSTITUTO FEDERAL</tspan>
  </text>
</svg>
