<svg xmlns="http://www.w3.org/2000/svg" xmlns:xlink="http://www.w3.org/1999/xlink" width="128" zoomAndPan="magnify" viewBox="0 0 96 30.000001" height="40" preserveAspectRatio="xMidYMid meet" version="1.0"><defs><g/><clipPath id="id1"><path d="M 5.304688 4.265625 L 25.589844 4.265625 L 25.589844 24.550781 L 5.304688 24.550781 Z M 5.304688 4.265625 " clip-rule="nonzero"/></clipPath><clipPath id="id2"><path d="M 5.304688 14.410156 C 5.304688 13.742188 5.371094 13.082031 5.5 12.429688 C 5.628906 11.777344 5.820312 11.144531 6.078125 10.527344 C 6.332031 9.914062 6.644531 9.328125 7.015625 8.773438 C 7.382812 8.222656 7.804688 7.707031 8.277344 7.238281 C 8.746094 6.765625 9.257812 6.347656 9.8125 5.976562 C 10.367188 5.605469 10.949219 5.292969 11.566406 5.039062 C 12.179688 4.785156 12.816406 4.59375 13.46875 4.460938 C 14.121094 4.332031 14.78125 4.265625 15.445312 4.265625 C 16.113281 4.265625 16.773438 4.332031 17.425781 4.460938 C 18.078125 4.59375 18.710938 4.785156 19.328125 5.039062 C 19.941406 5.292969 20.527344 5.605469 21.082031 5.976562 C 21.636719 6.347656 22.148438 6.765625 22.617188 7.238281 C 23.089844 7.707031 23.507812 8.222656 23.878906 8.773438 C 24.25 9.328125 24.5625 9.914062 24.816406 10.527344 C 25.070312 11.144531 25.265625 11.777344 25.394531 12.429688 C 25.523438 13.082031 25.589844 13.742188 25.589844 14.410156 C 25.589844 15.074219 25.523438 15.734375 25.394531 16.386719 C 25.265625 17.039062 25.070312 17.675781 24.816406 18.289062 C 24.5625 18.90625 24.25 19.488281 23.878906 20.042969 C 23.507812 20.597656 23.089844 21.109375 22.617188 21.582031 C 22.148438 22.050781 21.636719 22.472656 21.082031 22.84375 C 20.527344 23.210938 19.941406 23.523438 19.328125 23.777344 C 18.710938 24.035156 18.078125 24.226562 17.425781 24.355469 C 16.773438 24.484375 16.113281 24.550781 15.445312 24.550781 C 14.78125 24.550781 14.121094 24.484375 13.46875 24.355469 C 12.816406 24.226562 12.179688 24.035156 11.566406 23.777344 C 10.949219 23.523438 10.367188 23.210938 9.8125 22.84375 C 9.257812 22.472656 8.746094 22.050781 8.277344 21.582031 C 7.804688 21.109375 7.382812 20.597656 7.015625 20.042969 C 6.644531 19.488281 6.332031 18.90625 6.078125 18.289062 C 5.820312 17.675781 5.628906 17.039062 5.5 16.386719 C 5.371094 15.734375 5.304688 15.074219 5.304688 14.410156 Z M 5.304688 14.410156 " clip-rule="nonzero"/></clipPath><linearGradient x1="0.0000000317111" gradientTransform="matrix(-20.284015, -0.000000000000002484, 0.000000000000002484, -20.284015, 25.588914, 24.551188)" y1="0.0000000314002" x2="1.004902" gradientUnits="userSpaceOnUse" y2="0.99505" id="id3"><stop stop-opacity="1" stop-color="rgb(11.399841%, 88.198853%, 81.599426%)" offset="0"/><stop stop-opacity="1" stop-color="rgb(11.367798%, 87.969971%, 81.427002%)" offset="0.00390625"/><stop stop-opacity="1" stop-color="rgb(11.335754%, 87.742615%, 81.254578%)" offset="0.0078125"/><stop stop-opacity="1" stop-color="rgb(11.303711%, 87.513733%, 81.082153%)" offset="0.0117188"/><stop stop-opacity="1" stop-color="rgb(11.271667%, 87.284851%, 80.909729%)" offset="0.015625"/><stop stop-opacity="1" stop-color="rgb(11.239624%, 87.055969%, 80.735779%)" offset="0.0195312"/><stop stop-opacity="1" stop-color="rgb(11.207581%, 86.828613%, 80.563354%)" offset="0.0234375"/><stop stop-opacity="1" stop-color="rgb(11.175537%, 86.599731%, 80.39093%)" offset="0.0273438"/><stop stop-opacity="1" stop-color="rgb(11.143494%, 86.37085%, 80.218506%)" offset="0.03125"/><stop stop-opacity="1" stop-color="rgb(11.11145%, 86.141968%, 80.046082%)" offset="0.0351562"/><stop stop-opacity="1" stop-color="rgb(11.079407%, 85.914612%, 79.873657%)" offset="0.0390625"/><stop stop-opacity="1" stop-color="rgb(11.047363%, 85.68573%, 79.701233%)" offset="0.0429687"/><stop stop-opacity="1" stop-color="rgb(11.01532%, 85.456848%, 79.528809%)" offset="0.046875"/><stop stop-opacity="1" stop-color="rgb(10.983276%, 85.227966%, 79.356384%)" offset="0.0507812"/><stop stop-opacity="1" stop-color="rgb(10.951233%, 85.00061%, 79.18396%)" offset="0.0546875"/><stop stop-opacity="1" stop-color="rgb(10.919189%, 84.771729%, 79.011536%)" offset="0.0585937"/><stop stop-opacity="1" stop-color="rgb(10.887146%, 84.542847%, 78.839111%)" offset="0.0625"/><stop stop-opacity="1" stop-color="rgb(10.855103%, 84.313965%, 78.665161%)" offset="0.0664063"/><stop stop-opacity="1" stop-color="rgb(10.823059%, 84.086609%, 78.492737%)" offset="0.0703125"/><stop stop-opacity="1" stop-color="rgb(10.791016%, 83.857727%, 78.320312%)" offset="0.0742187"/><stop stop-opacity="1" stop-color="rgb(10.758972%, 83.628845%, 78.147888%)" offset="0.078125"/><stop stop-opacity="1" stop-color="rgb(10.726929%, 83.399963%, 77.975464%)" offset="0.0820313"/><stop stop-opacity="1" stop-color="rgb(10.694885%, 83.171082%, 77.80304%)" offset="0.0859375"/><stop stop-opacity="1" stop-color="rgb(10.662842%, 82.9422%, 77.630615%)" offset="0.0898437"/><stop stop-opacity="1" stop-color="rgb(10.630798%, 82.714844%, 77.458191%)" offset="0.09375"/><stop stop-opacity="1" stop-color="rgb(10.598755%, 82.485962%, 77.285767%)" offset="0.0976563"/><stop stop-opacity="1" stop-color="rgb(10.566711%, 82.25708%, 77.113342%)" offset="0.101562"/><stop stop-opacity="1" stop-color="rgb(10.534668%, 82.028198%, 76.940918%)" offset="0.105469"/><stop stop-opacity="1" stop-color="rgb(10.502625%, 81.800842%, 76.768494%)" offset="0.109375"/><stop stop-opacity="1" stop-color="rgb(10.470581%, 81.57196%, 76.594543%)" offset="0.113281"/><stop stop-opacity="1" stop-color="rgb(10.438538%, 81.343079%, 76.422119%)" offset="0.117188"/><stop stop-opacity="1" stop-color="rgb(10.406494%, 81.114197%, 76.249695%)" offset="0.121094"/><stop stop-opacity="1" stop-color="rgb(10.374451%, 80.886841%, 76.077271%)" offset="0.125"/><stop stop-opacity="1" stop-color="rgb(10.342407%, 80.657959%, 75.904846%)" offset="0.128906"/><stop stop-opacity="1" stop-color="rgb(10.310364%, 80.429077%, 75.732422%)" offset="0.132812"/><stop stop-opacity="1" stop-color="rgb(10.27832%, 80.200195%, 75.559998%)" offset="0.136719"/><stop stop-opacity="1" stop-color="rgb(10.246277%, 79.972839%, 75.387573%)" offset="0.140625"/><stop stop-opacity="1" stop-color="rgb(10.214233%, 79.743958%, 75.215149%)" offset="0.144531"/><stop stop-opacity="1" stop-color="rgb(10.18219%, 79.515076%, 75.042725%)" offset="0.148437"/><stop stop-opacity="1" stop-color="rgb(10.150146%, 79.286194%, 74.8703%)" offset="0.152344"/><stop stop-opacity="1" stop-color="rgb(10.118103%, 79.058838%, 74.697876%)" offset="0.15625"/><stop stop-opacity="1" stop-color="rgb(10.08606%, 78.829956%, 74.523926%)" offset="0.160156"/><stop stop-opacity="1" stop-color="rgb(10.054016%, 78.601074%, 74.351501%)" offset="0.164062"/><stop stop-opacity="1" stop-color="rgb(10.021973%, 78.372192%, 74.179077%)" offset="0.167969"/><stop stop-opacity="1" stop-color="rgb(9.989929%, 78.144836%, 74.006653%)" offset="0.171875"/><stop stop-opacity="1" stop-color="rgb(9.957886%, 77.915955%, 73.834229%)" offset="0.175781"/><stop stop-opacity="1" stop-color="rgb(9.925842%, 77.687073%, 73.661804%)" offset="0.179687"/><stop stop-opacity="1" stop-color="rgb(9.893799%, 77.458191%, 73.48938%)" offset="0.183594"/><stop stop-opacity="1" stop-color="rgb(9.861755%, 77.230835%, 73.316956%)" offset="0.1875"/><stop stop-opacity="1" stop-color="rgb(9.829712%, 77.001953%, 73.144531%)" offset="0.191406"/><stop stop-opacity="1" stop-color="rgb(9.797668%, 76.773071%, 72.972107%)" offset="0.195312"/><stop stop-opacity="1" stop-color="rgb(9.765625%, 76.544189%, 72.799683%)" offset="0.199219"/><stop stop-opacity="1" stop-color="rgb(9.733582%, 76.316833%, 72.627258%)" offset="0.203125"/><stop stop-opacity="1" stop-color="rgb(9.701538%, 76.087952%, 72.453308%)" offset="0.207031"/><stop stop-opacity="1" stop-color="rgb(9.669495%, 75.85907%, 72.280884%)" offset="0.210937"/><stop stop-opacity="1" stop-color="rgb(9.637451%, 75.630188%, 72.108459%)" offset="0.214844"/><stop stop-opacity="1" stop-color="rgb(9.605408%, 75.401306%, 71.936035%)" offset="0.21875"/><stop stop-opacity="1" stop-color="rgb(9.573364%, 75.172424%, 71.763611%)" offset="0.222656"/><stop stop-opacity="1" stop-color="rgb(9.541321%, 74.945068%, 71.591187%)" offset="0.226562"/><stop stop-opacity="1" stop-color="rgb(9.509277%, 74.716187%, 71.418762%)" offset="0.230469"/><stop stop-opacity="1" stop-color="rgb(9.477234%, 74.487305%, 71.246338%)" offset="0.234375"/><stop stop-opacity="1" stop-color="rgb(9.44519%, 74.258423%, 71.073914%)" offset="0.238281"/><stop stop-opacity="1" stop-color="rgb(9.413147%, 74.031067%, 70.901489%)" offset="0.242187"/><stop stop-opacity="1" stop-color="rgb(9.381104%, 73.802185%, 70.729065%)" offset="0.246094"/><stop stop-opacity="1" stop-color="rgb(9.34906%, 73.573303%, 70.556641%)" offset="0.25"/><stop stop-opacity="1" stop-color="rgb(9.317017%, 73.344421%, 70.38269%)" offset="0.253906"/><stop stop-opacity="1" stop-color="rgb(9.284973%, 73.117065%, 70.210266%)" offset="0.257812"/><stop stop-opacity="1" stop-color="rgb(9.25293%, 72.888184%, 70.037842%)" offset="0.261719"/><stop stop-opacity="1" stop-color="rgb(9.220886%, 72.659302%, 69.865417%)" offset="0.265625"/><stop stop-opacity="1" stop-color="rgb(9.188843%, 72.43042%, 69.692993%)" offset="0.269531"/><stop stop-opacity="1" stop-color="rgb(9.156799%, 72.203064%, 69.520569%)" offset="0.273437"/><stop stop-opacity="1" stop-color="rgb(9.124756%, 71.974182%, 69.348145%)" offset="0.277344"/><stop stop-opacity="1" stop-color="rgb(9.092712%, 71.7453%, 69.17572%)" offset="0.28125"/><stop stop-opacity="1" stop-color="rgb(9.060669%, 71.516418%, 69.003296%)" offset="0.285156"/><stop stop-opacity="1" stop-color="rgb(9.028625%, 71.289062%, 68.830872%)" offset="0.289062"/><stop stop-opacity="1" stop-color="rgb(8.996582%, 71.060181%, 68.658447%)" offset="0.292969"/><stop stop-opacity="1" stop-color="rgb(8.964539%, 70.831299%, 68.486023%)" offset="0.296875"/><stop stop-opacity="1" stop-color="rgb(8.932495%, 70.602417%, 68.312073%)" offset="0.300781"/><stop stop-opacity="1" stop-color="rgb(8.900452%, 70.375061%, 68.139648%)" offset="0.304687"/><stop stop-opacity="1" stop-color="rgb(8.868408%, 70.146179%, 67.967224%)" offset="0.308594"/><stop stop-opacity="1" stop-color="rgb(8.836365%, 69.917297%, 67.7948%)" offset="0.3125"/><stop stop-opacity="1" stop-color="rgb(8.804321%, 69.688416%, 67.622375%)" offset="0.316406"/><stop stop-opacity="1" stop-color="rgb(8.772278%, 69.46106%, 67.449951%)" offset="0.320312"/><stop stop-opacity="1" stop-color="rgb(8.740234%, 69.232178%, 67.277527%)" offset="0.324219"/><stop stop-opacity="1" stop-color="rgb(8.708191%, 69.003296%, 67.105103%)" offset="0.328125"/><stop stop-opacity="1" stop-color="rgb(8.676147%, 68.774414%, 66.932678%)" offset="0.332031"/><stop stop-opacity="1" stop-color="rgb(8.644104%, 68.547058%, 66.760254%)" offset="0.335937"/><stop stop-opacity="1" stop-color="rgb(8.612061%, 68.318176%, 66.58783%)" offset="0.339844"/><stop stop-opacity="1" stop-color="rgb(8.580017%, 68.089294%, 66.415405%)" offset="0.34375"/><stop stop-opacity="1" stop-color="rgb(8.547974%, 67.860413%, 66.242981%)" offset="0.347656"/><stop stop-opacity="1" stop-color="rgb(8.51593%, 67.633057%, 66.070557%)" offset="0.351562"/><stop stop-opacity="1" stop-color="rgb(8.483887%, 67.404175%, 65.896606%)" offset="0.355469"/><stop stop-opacity="1" stop-color="rgb(8.451843%, 67.175293%, 65.724182%)" offset="0.359375"/><stop stop-opacity="1" stop-color="rgb(8.4198%, 66.946411%, 65.551758%)" offset="0.363281"/><stop stop-opacity="1" stop-color="rgb(8.387756%, 66.717529%, 65.379333%)" offset="0.367187"/><stop stop-opacity="1" stop-color="rgb(8.355713%, 66.488647%, 65.206909%)" offset="0.371094"/><stop stop-opacity="1" stop-color="rgb(8.323669%, 66.261292%, 65.034485%)" offset="0.375"/><stop stop-opacity="1" stop-color="rgb(8.291626%, 66.03241%, 64.862061%)" offset="0.378906"/><stop stop-opacity="1" stop-color="rgb(8.259583%, 65.803528%, 64.689636%)" offset="0.382812"/><stop stop-opacity="1" stop-color="rgb(8.227539%, 65.574646%, 64.517212%)" offset="0.386719"/><stop stop-opacity="1" stop-color="rgb(8.195496%, 65.34729%, 64.344788%)" offset="0.390625"/><stop stop-opacity="1" stop-color="rgb(8.163452%, 65.118408%, 64.172363%)" offset="0.394531"/><stop stop-opacity="1" stop-color="rgb(8.131409%, 64.889526%, 63.999939%)" offset="0.398437"/><stop stop-opacity="1" stop-color="rgb(8.099365%, 64.660645%, 63.825989%)" offset="0.402344"/><stop stop-opacity="1" stop-color="rgb(8.067322%, 64.433289%, 63.653564%)" offset="0.40625"/><stop stop-opacity="1" stop-color="rgb(8.035278%, 64.204407%, 63.48114%)" offset="0.410156"/><stop stop-opacity="1" stop-color="rgb(8.003235%, 63.975525%, 63.308716%)" offset="0.414062"/><stop stop-opacity="1" stop-color="rgb(7.971191%, 63.746643%, 63.136292%)" offset="0.417969"/><stop stop-opacity="1" stop-color="rgb(7.939148%, 63.519287%, 62.963867%)" offset="0.421875"/><stop stop-opacity="1" stop-color="rgb(7.907104%, 63.290405%, 62.791443%)" offset="0.425781"/><stop stop-opacity="1" stop-color="rgb(7.875061%, 63.061523%, 62.619019%)" offset="0.429687"/><stop stop-opacity="1" stop-color="rgb(7.843018%, 62.832642%, 62.446594%)" offset="0.433594"/><stop stop-opacity="1" stop-color="rgb(7.810974%, 62.605286%, 62.27417%)" offset="0.4375"/><stop stop-opacity="1" stop-color="rgb(7.778931%, 62.376404%, 62.101746%)" offset="0.441406"/><stop stop-opacity="1" stop-color="rgb(7.746887%, 62.147522%, 61.929321%)" offset="0.445312"/><stop stop-opacity="1" stop-color="rgb(7.714844%, 61.91864%, 61.755371%)" offset="0.449219"/><stop stop-opacity="1" stop-color="rgb(7.6828%, 61.691284%, 61.582947%)" offset="0.453125"/><stop stop-opacity="1" stop-color="rgb(7.650757%, 61.462402%, 61.410522%)" offset="0.457031"/><stop stop-opacity="1" stop-color="rgb(7.618713%, 61.233521%, 61.238098%)" offset="0.460937"/><stop stop-opacity="1" stop-color="rgb(7.58667%, 61.004639%, 61.065674%)" offset="0.464844"/><stop stop-opacity="1" stop-color="rgb(7.554626%, 60.777283%, 60.89325%)" offset="0.46875"/><stop stop-opacity="1" stop-color="rgb(7.522583%, 60.548401%, 60.720825%)" offset="0.472656"/><stop stop-opacity="1" stop-color="rgb(7.49054%, 60.319519%, 60.548401%)" offset="0.476562"/><stop stop-opacity="1" stop-color="rgb(7.458496%, 60.090637%, 60.375977%)" offset="0.480469"/><stop stop-opacity="1" stop-color="rgb(7.426453%, 59.863281%, 60.203552%)" offset="0.484375"/><stop stop-opacity="1" stop-color="rgb(7.394409%, 59.634399%, 60.031128%)" offset="0.488281"/><stop stop-opacity="1" stop-color="rgb(7.362366%, 59.405518%, 59.858704%)" offset="0.492187"/><stop stop-opacity="1" stop-color="rgb(7.330322%, 59.176636%, 59.684753%)" offset="0.496094"/><stop stop-opacity="1" stop-color="rgb(7.298279%, 58.947754%, 59.512329%)" offset="0.5"/><stop stop-opacity="1" stop-color="rgb(7.266235%, 58.718872%, 59.339905%)" offset="0.503906"/><stop stop-opacity="1" stop-color="rgb(7.234192%, 58.491516%, 59.16748%)" offset="0.507812"/><stop stop-opacity="1" stop-color="rgb(7.202148%, 58.262634%, 58.995056%)" offset="0.511719"/><stop stop-opacity="1" stop-color="rgb(7.170105%, 58.033752%, 58.822632%)" offset="0.515625"/><stop stop-opacity="1" stop-color="rgb(7.138062%, 57.804871%, 58.650208%)" offset="0.519531"/><stop stop-opacity="1" stop-color="rgb(7.106018%, 57.577515%, 58.477783%)" offset="0.523437"/><stop stop-opacity="1" stop-color="rgb(7.073975%, 57.348633%, 58.305359%)" offset="0.527344"/><stop stop-opacity="1" stop-color="rgb(7.041931%, 57.119751%, 58.132935%)" offset="0.53125"/><stop stop-opacity="1" stop-color="rgb(7.009888%, 56.890869%, 57.96051%)" offset="0.535156"/><stop stop-opacity="1" stop-color="rgb(6.977844%, 56.663513%, 57.788086%)" offset="0.539062"/><stop stop-opacity="1" stop-color="rgb(6.945801%, 56.434631%, 57.614136%)" offset="0.542969"/><stop stop-opacity="1" stop-color="rgb(6.913757%, 56.20575%, 57.441711%)" offset="0.546875"/><stop stop-opacity="1" stop-color="rgb(6.881714%, 55.976868%, 57.269287%)" offset="0.550781"/><stop stop-opacity="1" stop-color="rgb(6.84967%, 55.749512%, 57.096863%)" offset="0.554688"/><stop stop-opacity="1" stop-color="rgb(6.817627%, 55.52063%, 56.924438%)" offset="0.558594"/><stop stop-opacity="1" stop-color="rgb(6.785583%, 55.291748%, 56.752014%)" offset="0.5625"/><stop stop-opacity="1" stop-color="rgb(6.75354%, 55.062866%, 56.57959%)" offset="0.566406"/><stop stop-opacity="1" stop-color="rgb(6.721497%, 54.83551%, 56.407166%)" offset="0.570312"/><stop stop-opacity="1" stop-color="rgb(6.689453%, 54.606628%, 56.234741%)" offset="0.574219"/><stop stop-opacity="1" stop-color="rgb(6.65741%, 54.377747%, 56.062317%)" offset="0.578125"/><stop stop-opacity="1" stop-color="rgb(6.625366%, 54.148865%, 55.889893%)" offset="0.582031"/><stop stop-opacity="1" stop-color="rgb(6.593323%, 53.921509%, 55.717468%)" offset="0.585938"/><stop stop-opacity="1" stop-color="rgb(6.561279%, 53.692627%, 55.543518%)" offset="0.589844"/><stop stop-opacity="1" stop-color="rgb(6.529236%, 53.463745%, 55.371094%)" offset="0.59375"/><stop stop-opacity="1" stop-color="rgb(6.497192%, 53.234863%, 55.198669%)" offset="0.597656"/><stop stop-opacity="1" stop-color="rgb(6.465149%, 53.007507%, 55.026245%)" offset="0.601563"/><stop stop-opacity="1" stop-color="rgb(6.433105%, 52.778625%, 54.853821%)" offset="0.605469"/><stop stop-opacity="1" stop-color="rgb(6.401062%, 52.549744%, 54.681396%)" offset="0.609375"/><stop stop-opacity="1" stop-color="rgb(6.369019%, 52.320862%, 54.508972%)" offset="0.613281"/><stop stop-opacity="1" stop-color="rgb(6.336975%, 52.093506%, 54.336548%)" offset="0.617188"/><stop stop-opacity="1" stop-color="rgb(6.304932%, 51.864624%, 54.164124%)" offset="0.621094"/><stop stop-opacity="1" stop-color="rgb(6.272888%, 51.635742%, 53.991699%)" offset="0.625"/><stop stop-opacity="1" stop-color="rgb(6.240845%, 51.40686%, 53.819275%)" offset="0.628906"/><stop stop-opacity="1" stop-color="rgb(6.208801%, 51.179504%, 53.646851%)" offset="0.632812"/><stop stop-opacity="1" stop-color="rgb(6.176758%, 50.950623%, 53.4729%)" offset="0.636719"/><stop stop-opacity="1" stop-color="rgb(6.144714%, 50.721741%, 53.300476%)" offset="0.640625"/><stop stop-opacity="1" stop-color="rgb(6.112671%, 50.492859%, 53.128052%)" offset="0.644531"/><stop stop-opacity="1" stop-color="rgb(6.080627%, 50.263977%, 52.955627%)" offset="0.648437"/><stop stop-opacity="1" stop-color="rgb(6.048584%, 50.035095%, 52.783203%)" offset="0.652344"/><stop stop-opacity="1" stop-color="rgb(6.016541%, 49.807739%, 52.610779%)" offset="0.65625"/><stop stop-opacity="1" stop-color="rgb(5.984497%, 49.578857%, 52.438354%)" offset="0.660156"/><stop stop-opacity="1" stop-color="rgb(5.952454%, 49.349976%, 52.26593%)" offset="0.664062"/><stop stop-opacity="1" stop-color="rgb(5.92041%, 49.121094%, 52.093506%)" offset="0.667969"/><stop stop-opacity="1" stop-color="rgb(5.888367%, 48.893738%, 51.921082%)" offset="0.671875"/><stop stop-opacity="1" stop-color="rgb(5.856323%, 48.664856%, 51.748657%)" offset="0.675781"/><stop stop-opacity="1" stop-color="rgb(5.82428%, 48.435974%, 51.576233%)" offset="0.679688"/><stop stop-opacity="1" stop-color="rgb(5.792236%, 48.207092%, 51.402283%)" offset="0.683594"/><stop stop-opacity="1" stop-color="rgb(5.760193%, 47.979736%, 51.229858%)" offset="0.6875"/><stop stop-opacity="1" stop-color="rgb(5.728149%, 47.750854%, 51.057434%)" offset="0.691406"/><stop stop-opacity="1" stop-color="rgb(5.696106%, 47.521973%, 50.88501%)" offset="0.695312"/><stop stop-opacity="1" stop-color="rgb(5.664062%, 47.293091%, 50.712585%)" offset="0.699219"/><stop stop-opacity="1" stop-color="rgb(5.632019%, 47.065735%, 50.540161%)" offset="0.703125"/><stop stop-opacity="1" stop-color="rgb(5.599976%, 46.836853%, 50.367737%)" offset="0.707031"/><stop stop-opacity="1" stop-color="rgb(5.567932%, 46.607971%, 50.195312%)" offset="0.710938"/><stop stop-opacity="1" stop-color="rgb(5.535889%, 46.379089%, 50.022888%)" offset="0.714844"/><stop stop-opacity="1" stop-color="rgb(5.503845%, 46.151733%, 49.850464%)" offset="0.71875"/><stop stop-opacity="1" stop-color="rgb(5.471802%, 45.922852%, 49.67804%)" offset="0.722656"/><stop stop-opacity="1" stop-color="rgb(5.439758%, 45.69397%, 49.505615%)" offset="0.726563"/><stop stop-opacity="1" stop-color="rgb(5.407715%, 45.465088%, 49.331665%)" offset="0.730469"/><stop stop-opacity="1" stop-color="rgb(5.375671%, 45.237732%, 49.159241%)" offset="0.734375"/><stop stop-opacity="1" stop-color="rgb(5.343628%, 45.00885%, 48.986816%)" offset="0.738281"/><stop stop-opacity="1" stop-color="rgb(5.311584%, 44.779968%, 48.814392%)" offset="0.742188"/><stop stop-opacity="1" stop-color="rgb(5.279541%, 44.551086%, 48.641968%)" offset="0.746094"/><stop stop-opacity="1" stop-color="rgb(5.247498%, 44.32373%, 48.469543%)" offset="0.75"/><stop stop-opacity="1" stop-color="rgb(5.215454%, 44.094849%, 48.297119%)" offset="0.753906"/><stop stop-opacity="1" stop-color="rgb(5.183411%, 43.865967%, 48.124695%)" offset="0.757812"/><stop stop-opacity="1" stop-color="rgb(5.151367%, 43.637085%, 47.952271%)" offset="0.761719"/><stop stop-opacity="1" stop-color="rgb(5.119324%, 43.409729%, 47.779846%)" offset="0.765625"/><stop stop-opacity="1" stop-color="rgb(5.08728%, 43.180847%, 47.607422%)" offset="0.769531"/><stop stop-opacity="1" stop-color="rgb(5.055237%, 42.951965%, 47.434998%)" offset="0.773437"/><stop stop-opacity="1" stop-color="rgb(5.023193%, 42.723083%, 47.262573%)" offset="0.777344"/><stop stop-opacity="1" stop-color="rgb(4.99115%, 42.494202%, 47.090149%)" offset="0.78125"/><stop stop-opacity="1" stop-color="rgb(4.959106%, 42.26532%, 46.916199%)" offset="0.785156"/><stop stop-opacity="1" stop-color="rgb(4.927063%, 42.037964%, 46.743774%)" offset="0.789062"/><stop stop-opacity="1" stop-color="rgb(4.89502%, 41.809082%, 46.57135%)" offset="0.792969"/><stop stop-opacity="1" stop-color="rgb(4.862976%, 41.5802%, 46.398926%)" offset="0.796875"/><stop stop-opacity="1" stop-color="rgb(4.830933%, 41.351318%, 46.226501%)" offset="0.800781"/><stop stop-opacity="1" stop-color="rgb(4.798889%, 41.123962%, 46.054077%)" offset="0.804688"/><stop stop-opacity="1" stop-color="rgb(4.766846%, 40.895081%, 45.881653%)" offset="0.808594"/><stop stop-opacity="1" stop-color="rgb(4.734802%, 40.666199%, 45.709229%)" offset="0.8125"/><stop stop-opacity="1" stop-color="rgb(4.702759%, 40.437317%, 45.536804%)" offset="0.816406"/><stop stop-opacity="1" stop-color="rgb(4.670715%, 40.209961%, 45.36438%)" offset="0.820312"/><stop stop-opacity="1" stop-color="rgb(4.638672%, 39.981079%, 45.191956%)" offset="0.824219"/><stop stop-opacity="1" stop-color="rgb(4.606628%, 39.752197%, 45.019531%)" offset="0.828125"/><stop stop-opacity="1" stop-color="rgb(4.574585%, 39.523315%, 44.845581%)" offset="0.832031"/><stop stop-opacity="1" stop-color="rgb(4.542542%, 39.295959%, 44.673157%)" offset="0.835938"/><stop stop-opacity="1" stop-color="rgb(4.510498%, 39.067078%, 44.500732%)" offset="0.839844"/><stop stop-opacity="1" stop-color="rgb(4.478455%, 38.838196%, 44.328308%)" offset="0.84375"/><stop stop-opacity="1" stop-color="rgb(4.446411%, 38.609314%, 44.155884%)" offset="0.847656"/><stop stop-opacity="1" stop-color="rgb(4.414368%, 38.381958%, 43.983459%)" offset="0.851563"/><stop stop-opacity="1" stop-color="rgb(4.382324%, 38.153076%, 43.811035%)" offset="0.855469"/><stop stop-opacity="1" stop-color="rgb(4.350281%, 37.924194%, 43.638611%)" offset="0.859375"/><stop stop-opacity="1" stop-color="rgb(4.318237%, 37.695312%, 43.466187%)" offset="0.863281"/><stop stop-opacity="1" stop-color="rgb(4.286194%, 37.467957%, 43.293762%)" offset="0.867188"/><stop stop-opacity="1" stop-color="rgb(4.25415%, 37.239075%, 43.121338%)" offset="0.871094"/><stop stop-opacity="1" stop-color="rgb(4.222107%, 37.010193%, 42.948914%)" offset="0.875"/><stop stop-opacity="1" stop-color="rgb(4.190063%, 36.781311%, 42.774963%)" offset="0.878906"/><stop stop-opacity="1" stop-color="rgb(4.15802%, 36.553955%, 42.602539%)" offset="0.882812"/><stop stop-opacity="1" stop-color="rgb(4.125977%, 36.325073%, 42.430115%)" offset="0.886719"/><stop stop-opacity="1" stop-color="rgb(4.093933%, 36.096191%, 42.25769%)" offset="0.890625"/><stop stop-opacity="1" stop-color="rgb(4.06189%, 35.86731%, 42.085266%)" offset="0.894531"/><stop stop-opacity="1" stop-color="rgb(4.029846%, 35.639954%, 41.912842%)" offset="0.898437"/><stop stop-opacity="1" stop-color="rgb(3.997803%, 35.411072%, 41.740417%)" offset="0.902344"/><stop stop-opacity="1" stop-color="rgb(3.965759%, 35.18219%, 41.567993%)" offset="0.90625"/><stop stop-opacity="1" stop-color="rgb(3.933716%, 34.953308%, 41.395569%)" offset="0.910156"/><stop stop-opacity="1" stop-color="rgb(3.901672%, 34.725952%, 41.223145%)" offset="0.914062"/><stop stop-opacity="1" stop-color="rgb(3.869629%, 34.49707%, 41.05072%)" offset="0.917969"/><stop stop-opacity="1" stop-color="rgb(3.837585%, 34.268188%, 40.878296%)" offset="0.921875"/><stop stop-opacity="1" stop-color="rgb(3.805542%, 34.039307%, 40.704346%)" offset="0.925781"/><stop stop-opacity="1" stop-color="rgb(3.773499%, 33.810425%, 40.531921%)" offset="0.929688"/><stop stop-opacity="1" stop-color="rgb(3.741455%, 33.581543%, 40.359497%)" offset="0.933594"/><stop stop-opacity="1" stop-color="rgb(3.709412%, 33.354187%, 40.187073%)" offset="0.9375"/><stop stop-opacity="1" stop-color="rgb(3.677368%, 33.125305%, 40.014648%)" offset="0.941406"/><stop stop-opacity="1" stop-color="rgb(3.645325%, 32.896423%, 39.842224%)" offset="0.945312"/><stop stop-opacity="1" stop-color="rgb(3.613281%, 32.667542%, 39.6698%)" offset="0.949219"/><stop stop-opacity="1" stop-color="rgb(3.581238%, 32.440186%, 39.497375%)" offset="0.953125"/><stop stop-opacity="1" stop-color="rgb(3.549194%, 32.211304%, 39.324951%)" offset="0.957031"/><stop stop-opacity="1" stop-color="rgb(3.517151%, 31.982422%, 39.152527%)" offset="0.960938"/><stop stop-opacity="1" stop-color="rgb(3.485107%, 31.75354%, 38.980103%)" offset="0.964844"/><stop stop-opacity="1" stop-color="rgb(3.453064%, 31.526184%, 38.807678%)" offset="0.96875"/><stop stop-opacity="1" stop-color="rgb(3.421021%, 31.297302%, 38.633728%)" offset="0.972656"/><stop stop-opacity="1" stop-color="rgb(3.388977%, 31.06842%, 38.461304%)" offset="0.976563"/><stop stop-opacity="1" stop-color="rgb(3.356934%, 30.839539%, 38.288879%)" offset="0.980469"/><stop stop-opacity="1" stop-color="rgb(3.32489%, 30.612183%, 38.116455%)" offset="0.984375"/><stop stop-opacity="1" stop-color="rgb(3.292847%, 30.383301%, 37.944031%)" offset="0.988281"/><stop stop-opacity="1" stop-color="rgb(3.260803%, 30.154419%, 37.771606%)" offset="0.992188"/><stop stop-opacity="1" stop-color="rgb(3.22876%, 29.925537%, 37.599182%)" offset="0.996094"/><stop stop-opacity="1" stop-color="rgb(3.196716%, 29.698181%, 37.426758%)" offset="1"/></linearGradient><clipPath id="id4"><path d="M 5.9375 4.902344 L 25.003906 4.902344 L 25.003906 23.96875 L 5.9375 23.96875 Z M 5.9375 4.902344 " clip-rule="nonzero"/></clipPath><clipPath id="id5"><path d="M 10.414062 10.625 L 20.480469 10.625 L 20.480469 19.457031 L 10.414062 19.457031 Z M 10.414062 10.625 " clip-rule="nonzero"/></clipPath></defs><g clip-path="url(#id1)"><g clip-path="url(#id2)"><path fill="url(#id3)" d="M 25.589844 24.550781 L 25.589844 4.265625 L 5.304688 4.265625 L 5.304688 24.550781 Z M 25.589844 24.550781 " fill-rule="nonzero"/></g></g><g clip-path="url(#id4)"><path fill="#ffffff" d="M 15.472656 4.902344 C 10.207031 4.902344 5.9375 9.167969 5.9375 14.433594 C 5.9375 19.699219 10.207031 23.96875 15.472656 23.96875 C 20.738281 23.96875 25.003906 19.699219 25.003906 14.433594 C 25.003906 9.167969 20.738281 4.902344 15.472656 4.902344 " fill-opacity="1" fill-rule="nonzero"/></g><path stroke-linecap="round" transform="matrix(-0.0204655, -0.503311, 0.506682, -0.0206026, 20.137733, 20.469597)" fill="none" stroke-linejoin="miter" d="M 0.498283 0.00270598 L 5.139637 -0.00256059 " stroke="#1de1d0" stroke-width="1" stroke-opacity="1" stroke-miterlimit="4"/><path stroke-linecap="round" transform="matrix(-0.281559, -0.417691, 0.420488, -0.283445, 21.60596, 22.406242)" fill="none" stroke-linejoin="miter" d="M 0.497374 -0.00255835 L 5.140903 0.00395986 " stroke="#25c9bb" stroke-width="1" stroke-opacity="1" stroke-miterlimit="4"/><g clip-path="url(#id5)"><path fill="#ff3b3b" d="M 10.414062 13.230469 C 10.414062 16.035156 15.445312 19.457031 15.445312 19.457031 C 15.445312 19.457031 20.457031 16.011719 20.480469 13.230469 C 20.480469 11.792969 19.308594 10.625 17.875 10.625 C 16.769531 10.625 15.820312 11.332031 15.445312 12.300781 C 15.074219 11.332031 14.121094 10.625 13.019531 10.625 C 11.585938 10.625 10.414062 11.792969 10.414062 13.230469 " fill-opacity="1" fill-rule="nonzero"/></g><g fill="#000000" fill-opacity="1"><g transform="translate(15.343449, 23.081599)"><g/></g></g><g fill="#000000" fill-opacity="1"><g transform="translate(5.904865, 20.418005)"><g/></g></g><g fill="#084a5e" fill-opacity="1"><g transform="translate(4.451611, 15.397855)"><g><path d="M 0.359375 -0.6875 C 0.359375 -0.9375 0.429688 -1.128906 0.578125 -1.265625 C 0.722656 -1.398438 0.9375 -1.46875 1.21875 -1.46875 C 1.488281 -1.46875 1.695312 -1.398438 1.84375 -1.265625 C 1.988281 -1.128906 2.0625 -0.9375 2.0625 -0.6875 C 2.0625 -0.4375 1.988281 -0.238281 1.84375 -0.09375 C 1.695312 0.0390625 1.488281 0.109375 1.21875 0.109375 C 0.945312 0.109375 0.734375 0.0390625 0.578125 -0.09375 C 0.429688 -0.238281 0.359375 -0.4375 0.359375 -0.6875 Z M 0.359375 -0.6875 "/></g></g></g><g fill="#1de1d0" fill-opacity="1"><g transform="translate(24.028403, 15.379696)"><g><path d="M 0.359375 -0.6875 C 0.359375 -0.9375 0.429688 -1.128906 0.578125 -1.265625 C 0.722656 -1.398438 0.9375 -1.46875 1.21875 -1.46875 C 1.488281 -1.46875 1.695312 -1.398438 1.84375 -1.265625 C 1.988281 -1.128906 2.0625 -0.9375 2.0625 -0.6875 C 2.0625 -0.4375 1.988281 -0.238281 1.84375 -0.09375 C 1.695312 0.0390625 1.488281 0.109375 1.21875 0.109375 C 0.945312 0.109375 0.734375 0.0390625 0.578125 -0.09375 C 0.429688 -0.238281 0.359375 -0.4375 0.359375 -0.6875 Z M 0.359375 -0.6875 "/></g></g></g><g fill="#084a5e" fill-opacity="1"><g transform="translate(14.14724, 5.284757)"><g><path d="M 0.359375 -0.6875 C 0.359375 -0.9375 0.429688 -1.128906 0.578125 -1.265625 C 0.722656 -1.398438 0.9375 -1.46875 1.21875 -1.46875 C 1.488281 -1.46875 1.695312 -1.398438 1.84375 -1.265625 C 1.988281 -1.128906 2.0625 -0.9375 2.0625 -0.6875 C 2.0625 -0.4375 1.988281 -0.238281 1.84375 -0.09375 C 1.695312 0.0390625 1.488281 0.109375 1.21875 0.109375 C 0.945312 0.109375 0.734375 0.0390625 0.578125 -0.09375 C 0.429688 -0.238281 0.359375 -0.4375 0.359375 -0.6875 Z M 0.359375 -0.6875 "/></g></g></g><path stroke-linecap="butt" transform="matrix(0.000000000000000031, -0.509755, 0.5071, 0.000000000000000031, 15.446523, 24.550807)" fill="none" stroke-linejoin="miter" d="M 0.0000509611 -0.00238691 L 6.567233 -0.00238691 " stroke="#23c9ba" stroke-width="1" stroke-opacity="1" stroke-miterlimit="4"/><g fill="#23c9ba" fill-opacity="1"><g transform="translate(14.234935, 21.360473)"><g><path d="M 0.359375 -0.6875 C 0.359375 -0.9375 0.429688 -1.128906 0.578125 -1.265625 C 0.722656 -1.398438 0.9375 -1.46875 1.21875 -1.46875 C 1.488281 -1.46875 1.695312 -1.398438 1.84375 -1.265625 C 1.988281 -1.128906 2.0625 -0.9375 2.0625 -0.6875 C 2.0625 -0.4375 1.988281 -0.238281 1.84375 -0.09375 C 1.695312 0.0390625 1.488281 0.109375 1.21875 0.109375 C 0.945312 0.109375 0.734375 0.0390625 0.578125 -0.09375 C 0.429688 -0.238281 0.359375 -0.4375 0.359375 -0.6875 Z M 0.359375 -0.6875 "/></g></g></g><g fill="#13657e" fill-opacity="1"><g transform="translate(7.078391, 21.649062)"><g><path d="M 0.359375 -0.6875 C 0.359375 -0.9375 0.429688 -1.128906 0.578125 -1.265625 C 0.722656 -1.398438 0.9375 -1.46875 1.21875 -1.46875 C 1.488281 -1.46875 1.695312 -1.398438 1.84375 -1.265625 C 1.988281 -1.128906 2.0625 -0.9375 2.0625 -0.6875 C 2.0625 -0.4375 1.988281 -0.238281 1.84375 -0.09375 C 1.695312 0.0390625 1.488281 0.109375 1.21875 0.109375 C 0.945312 0.109375 0.734375 0.0390625 0.578125 -0.09375 C 0.429688 -0.238281 0.359375 -0.4375 0.359375 -0.6875 Z M 0.359375 -0.6875 "/></g></g></g><path stroke-linecap="round" transform="matrix(-0.510647, -0.000000000000000063, 0.000000000000000062, -0.5071, 16.953461, 13.461081)" fill="none" stroke-linejoin="miter" d="M 0.497883 0.000282875 L 6.648174 0.000282875 " stroke="#ffffff" stroke-width="1" stroke-opacity="1" stroke-miterlimit="4"/><path stroke-linecap="round" transform="matrix(-0.510647, 0.000000000000000516, -0.000000000000000512, -0.5071, 15.140576, 13.461081)" fill="none" stroke-linejoin="miter" d="M 0.497129 0.000282875 L 3.075049 0.000282875 " stroke="#7bfaef" stroke-width="1" stroke-opacity="1" stroke-miterlimit="4"/><path stroke-linecap="round" transform="matrix(-0.422685, 0.285788, -0.284034, -0.42009, 13.691527, 13.325093)" fill="none" stroke-linejoin="miter" d="M 0.500376 -0.00155981 L 5.065662 -0.00152113 " stroke="#368298" stroke-width="1" stroke-opacity="1" stroke-miterlimit="4"/><path stroke-linecap="round" transform="matrix(-0.506535, -0.000000000000000287, 0.000000000000000287, -0.5071, 11.747044, 14.783463)" fill="none" stroke-linejoin="miter" d="M 0.503136 -0.00333975 L 10.713436 -0.00333975 " stroke="#084a5e" stroke-width="1" stroke-opacity="1" stroke-miterlimit="4"/><g fill="#ffffff" fill-opacity="1"><g transform="translate(15.446906, 14.266114)"><g><path d="M 0.359375 -0.6875 C 0.359375 -0.9375 0.429688 -1.128906 0.578125 -1.265625 C 0.722656 -1.398438 0.9375 -1.46875 1.21875 -1.46875 C 1.488281 -1.46875 1.695312 -1.398438 1.84375 -1.265625 C 1.988281 -1.128906 2.0625 -0.9375 2.0625 -0.6875 C 2.0625 -0.4375 1.988281 -0.238281 1.84375 -0.09375 C 1.695312 0.0390625 1.488281 0.109375 1.21875 0.109375 C 0.945312 0.109375 0.734375 0.0390625 0.578125 -0.09375 C 0.429688 -0.238281 0.359375 -0.4375 0.359375 -0.6875 Z M 0.359375 -0.6875 "/></g></g></g><path stroke-linecap="round" transform="matrix(-0.448372, 0.235339, -0.235673, -0.449009, 18.278772, 15.413857)" fill="none" stroke-linejoin="miter" d="M 0.499568 0.000389988 L 6.110076 0.000522363 " stroke="#ffffff" stroke-width="1" stroke-opacity="1" stroke-miterlimit="4"/><g fill="#1de1d0" fill-opacity="1"><g transform="translate(22.531099, 19.925081)"><g><path d="M 0.359375 -0.6875 C 0.359375 -0.9375 0.429688 -1.128906 0.578125 -1.265625 C 0.722656 -1.398438 0.9375 -1.46875 1.21875 -1.46875 C 1.488281 -1.46875 1.695312 -1.398438 1.84375 -1.265625 C 1.988281 -1.128906 2.0625 -0.9375 2.0625 -0.6875 C 2.0625 -0.4375 1.988281 -0.238281 1.84375 -0.09375 C 1.695312 0.0390625 1.488281 0.109375 1.21875 0.109375 C 0.945312 0.109375 0.734375 0.0390625 0.578125 -0.09375 C 0.429688 -0.238281 0.359375 -0.4375 0.359375 -0.6875 Z M 0.359375 -0.6875 "/></g></g></g><path stroke-linecap="round" transform="matrix(-0.00922583, -0.51101, 0.507018, -0.00915375, 10.718871, 17.601242)" fill="none" stroke-linejoin="miter" d="M 0.496225 0.00108639 L 5.059829 -0.000621116 " stroke="#084a5e" stroke-width="1" stroke-opacity="1" stroke-miterlimit="4"/><path stroke-linecap="round" transform="matrix(-0.308912, -0.407173, 0.403992, -0.306498, 12.319868, 19.576669)" fill="none" stroke-linejoin="miter" d="M 0.498607 -0.00440546 L 5.05994 0.00252279 " stroke="#084a5e" stroke-width="1" stroke-opacity="1" stroke-miterlimit="4"/><path stroke-linecap="round" transform="matrix(-0.452485, 0.242129, -0.239253, -0.447111, 19.687304, 14.658816)" fill="none" stroke-linejoin="miter" d="M 0.501473 -0.00226628 L 4.444746 0.00143392 " stroke="#7bfaef" stroke-width="1" stroke-opacity="1" stroke-miterlimit="4"/><path stroke-linecap="round" transform="matrix(-0.506535, -0.000000000000000287, 0.000000000000000287, -0.5071, 24.923283, 14.778887)" fill="none" stroke-linejoin="miter" d="M 0.49633 0.00304272 L 10.714341 0.00304272 " stroke="#1de1d0" stroke-width="1" stroke-opacity="1" stroke-miterlimit="4"/><g fill="#1de1d0" fill-opacity="1"><g transform="translate(18.803729, 18.227168)"><g><path d="M 0.359375 -0.6875 C 0.359375 -0.9375 0.429688 -1.128906 0.578125 -1.265625 C 0.722656 -1.398438 0.9375 -1.46875 1.21875 -1.46875 C 1.488281 -1.46875 1.695312 -1.398438 1.84375 -1.265625 C 1.988281 -1.128906 2.0625 -0.9375 2.0625 -0.6875 C 2.0625 -0.4375 1.988281 -0.238281 1.84375 -0.09375 C 1.695312 0.0390625 1.488281 0.109375 1.21875 0.109375 C 0.945312 0.109375 0.734375 0.0390625 0.578125 -0.09375 C 0.429688 -0.238281 0.359375 -0.4375 0.359375 -0.6875 Z M 0.359375 -0.6875 "/></g></g></g><path stroke-linecap="round" transform="matrix(0.000000000000000031, -0.511093, 0.5071, 0.000000000000000031, 15.359, 8.121347)" fill="none" stroke-linejoin="miter" d="M 0.497287 0.000739624 L 5.847337 0.000739624 " stroke="#084a5e" stroke-width="1" stroke-opacity="1" stroke-miterlimit="4"/><path stroke-linecap="round" transform="matrix(0.000000000000000031, -0.511093, 0.5071, 0.000000000000000031, 11.226395, 8.801759)" fill="none" stroke-linejoin="miter" d="M 0.498703 0.000329718 L 5.848754 0.000329718 " stroke="#084a5e" stroke-width="1" stroke-opacity="1" stroke-miterlimit="4"/><path stroke-linecap="round" transform="matrix(-0.30221, 0.412389, -0.409027, -0.299746, 11.401665, 8.42981)" fill="none" stroke-linejoin="miter" d="M 0.501775 0.0000581052 L 4.065405 0.0028971 " stroke="#084a5e" stroke-width="1" stroke-opacity="1" stroke-miterlimit="4"/><path stroke-linecap="round" transform="matrix(0.000000000000000031, -0.507487, 0.5071, 0.000000000000000031, 21.816952, 14.77853)" fill="none" stroke-linejoin="miter" d="M 0.502659 -0.00107685 L 7.69188 -0.00107685 " stroke="#1de1d0" stroke-width="1" stroke-opacity="1" stroke-miterlimit="4"/><path stroke-linecap="round" transform="matrix(-0.391022, -0.330457, 0.327322, -0.387313, 21.917277, 10.969668)" fill="none" stroke-linejoin="miter" d="M 0.498359 0.000759695 L 5.046076 0.00355062 " stroke="#1de1d0" stroke-width="1" stroke-opacity="1" stroke-miterlimit="4"/><g fill="#ffffff" fill-opacity="1"><g transform="translate(14.234935, 17.603914)"><g><path d="M 0.359375 -0.6875 C 0.359375 -0.9375 0.429688 -1.128906 0.578125 -1.265625 C 0.722656 -1.398438 0.9375 -1.46875 1.21875 -1.46875 C 1.488281 -1.46875 1.695312 -1.398438 1.84375 -1.265625 C 1.988281 -1.128906 2.0625 -0.9375 2.0625 -0.6875 C 2.0625 -0.4375 1.988281 -0.238281 1.84375 -0.09375 C 1.695312 0.0390625 1.488281 0.109375 1.21875 0.109375 C 0.945312 0.109375 0.734375 0.0390625 0.578125 -0.09375 C 0.429688 -0.238281 0.359375 -0.4375 0.359375 -0.6875 Z M 0.359375 -0.6875 "/></g></g></g><g fill="#084a5e" fill-opacity="1"><g transform="translate(11.101056, 20.323532)"><g><path d="M 0.359375 -0.6875 C 0.359375 -0.9375 0.429688 -1.128906 0.578125 -1.265625 C 0.722656 -1.398438 0.9375 -1.46875 1.21875 -1.46875 C 1.488281 -1.46875 1.695312 -1.398438 1.84375 -1.265625 C 1.988281 -1.128906 2.0625 -0.9375 2.0625 -0.6875 C 2.0625 -0.4375 1.988281 -0.238281 1.84375 -0.09375 C 1.695312 0.0390625 1.488281 0.109375 1.21875 0.109375 C 0.945312 0.109375 0.734375 0.0390625 0.578125 -0.09375 C 0.429688 -0.238281 0.359375 -0.4375 0.359375 -0.6875 Z M 0.359375 -0.6875 "/></g></g></g><g fill="#084a5e" fill-opacity="1"><g transform="translate(5.304899, 11.31629)"><g><path d="M 0.359375 -0.6875 C 0.359375 -0.9375 0.429688 -1.128906 0.578125 -1.265625 C 0.722656 -1.398438 0.9375 -1.46875 1.21875 -1.46875 C 1.488281 -1.46875 1.695312 -1.398438 1.84375 -1.265625 C 1.988281 -1.128906 2.0625 -0.9375 2.0625 -0.6875 C 2.0625 -0.4375 1.988281 -0.238281 1.84375 -0.09375 C 1.695312 0.0390625 1.488281 0.109375 1.21875 0.109375 C 0.945312 0.109375 0.734375 0.0390625 0.578125 -0.09375 C 0.429688 -0.238281 0.359375 -0.4375 0.359375 -0.6875 Z M 0.359375 -0.6875 "/></g></g></g><g fill="#4cc7bd" fill-opacity="1"><g transform="translate(22.816432, 10.278004)"><g><path d="M 0.359375 -0.6875 C 0.359375 -0.9375 0.429688 -1.128906 0.578125 -1.265625 C 0.722656 -1.398438 0.9375 -1.46875 1.21875 -1.46875 C 1.488281 -1.46875 1.695312 -1.398438 1.84375 -1.265625 C 1.988281 -1.128906 2.0625 -0.9375 2.0625 -0.6875 C 2.0625 -0.4375 1.988281 -0.238281 1.84375 -0.09375 C 1.695312 0.0390625 1.488281 0.109375 1.21875 0.109375 C 0.945312 0.109375 0.734375 0.0390625 0.578125 -0.09375 C 0.429688 -0.238281 0.359375 -0.4375 0.359375 -0.6875 Z M 0.359375 -0.6875 "/></g></g></g><g fill="#084a5e" fill-opacity="1"><g transform="translate(8.61767, 11.020911)"><g><path d="M 0.359375 -0.6875 C 0.359375 -0.9375 0.429688 -1.128906 0.578125 -1.265625 C 0.722656 -1.398438 0.9375 -1.46875 1.21875 -1.46875 C 1.488281 -1.46875 1.695312 -1.398438 1.84375 -1.265625 C 1.988281 -1.128906 2.0625 -0.9375 2.0625 -0.6875 C 2.0625 -0.4375 1.988281 -0.238281 1.84375 -0.09375 C 1.695312 0.0390625 1.488281 0.109375 1.21875 0.109375 C 0.945312 0.109375 0.734375 0.0390625 0.578125 -0.09375 C 0.429688 -0.238281 0.359375 -0.4375 0.359375 -0.6875 Z M 0.359375 -0.6875 "/></g></g></g><g fill="#1de1d0" fill-opacity="1"><g transform="translate(18.419234, 9.706036)"><g><path d="M 0.359375 -0.6875 C 0.359375 -0.9375 0.429688 -1.128906 0.578125 -1.265625 C 0.722656 -1.398438 0.9375 -1.46875 1.21875 -1.46875 C 1.488281 -1.46875 1.695312 -1.398438 1.84375 -1.265625 C 1.988281 -1.128906 2.0625 -0.9375 2.0625 -0.6875 C 2.0625 -0.4375 1.988281 -0.238281 1.84375 -0.09375 C 1.695312 0.0390625 1.488281 0.109375 1.21875 0.109375 C 0.945312 0.109375 0.734375 0.0390625 0.578125 -0.09375 C 0.429688 -0.238281 0.359375 -0.4375 0.359375 -0.6875 Z M 0.359375 -0.6875 "/></g></g></g><g fill="#084a5e" fill-opacity="1"><g transform="translate(28.023595, 18.65215)"><g><path d="M 9.6875 -4.609375 C 9.6875 -3.910156 9.578125 -3.273438 9.359375 -2.703125 C 9.140625 -2.128906 8.832031 -1.632812 8.4375 -1.21875 C 8.039062 -0.800781 7.5625 -0.476562 7 -0.25 C 6.4375 -0.0195312 5.816406 0.09375 5.140625 0.09375 C 4.460938 0.09375 3.84375 -0.0195312 3.28125 -0.25 C 2.726562 -0.476562 2.253906 -0.800781 1.859375 -1.21875 C 1.460938 -1.632812 1.15625 -2.128906 0.9375 -2.703125 C 0.71875 -3.273438 0.609375 -3.910156 0.609375 -4.609375 C 0.609375 -5.296875 0.71875 -5.925781 0.9375 -6.5 C 1.15625 -7.082031 1.460938 -7.582031 1.859375 -8 C 2.253906 -8.414062 2.726562 -8.738281 3.28125 -8.96875 C 3.84375 -9.195312 4.460938 -9.3125 5.140625 -9.3125 C 5.816406 -9.3125 6.4375 -9.195312 7 -8.96875 C 7.5625 -8.738281 8.039062 -8.414062 8.4375 -8 C 8.832031 -7.582031 9.140625 -7.082031 9.359375 -6.5 C 9.578125 -5.925781 9.6875 -5.296875 9.6875 -4.609375 Z M 8.40625 -4.609375 C 8.40625 -5.171875 8.328125 -5.675781 8.171875 -6.125 C 8.023438 -6.570312 7.804688 -6.953125 7.515625 -7.265625 C 7.234375 -7.578125 6.890625 -7.816406 6.484375 -7.984375 C 6.085938 -8.148438 5.640625 -8.234375 5.140625 -8.234375 C 4.648438 -8.234375 4.203125 -8.148438 3.796875 -7.984375 C 3.398438 -7.816406 3.054688 -7.578125 2.765625 -7.265625 C 2.484375 -6.953125 2.265625 -6.570312 2.109375 -6.125 C 1.953125 -5.675781 1.875 -5.171875 1.875 -4.609375 C 1.875 -4.035156 1.953125 -3.523438 2.109375 -3.078125 C 2.265625 -2.628906 2.484375 -2.25 2.765625 -1.9375 C 3.054688 -1.632812 3.398438 -1.398438 3.796875 -1.234375 C 4.203125 -1.066406 4.648438 -0.984375 5.140625 -0.984375 C 5.640625 -0.984375 6.085938 -1.066406 6.484375 -1.234375 C 6.890625 -1.398438 7.234375 -1.632812 7.515625 -1.9375 C 7.804688 -2.25 8.023438 -2.628906 8.171875 -3.078125 C 8.328125 -3.523438 8.40625 -4.035156 8.40625 -4.609375 Z M 8.40625 -4.609375 "/></g></g></g><g fill="#084a5e" fill-opacity="1"><g transform="translate(38.311054, 18.65215)"><g><path d="M 2 -5.203125 C 2.195312 -5.648438 2.445312 -6 2.75 -6.25 C 3.050781 -6.5 3.414062 -6.625 3.84375 -6.625 C 3.988281 -6.625 4.125 -6.609375 4.25 -6.578125 C 4.375 -6.546875 4.484375 -6.5 4.578125 -6.4375 L 4.5 -5.59375 C 4.476562 -5.476562 4.414062 -5.421875 4.3125 -5.421875 C 4.25 -5.421875 4.160156 -5.429688 4.046875 -5.453125 C 3.929688 -5.484375 3.800781 -5.5 3.65625 -5.5 C 3.445312 -5.5 3.257812 -5.46875 3.09375 -5.40625 C 2.9375 -5.351562 2.796875 -5.265625 2.671875 -5.140625 C 2.546875 -5.023438 2.429688 -4.878906 2.328125 -4.703125 C 2.222656 -4.535156 2.132812 -4.335938 2.0625 -4.109375 L 2.0625 0 L 0.90625 0 L 0.90625 -6.515625 L 1.5625 -6.515625 C 1.6875 -6.515625 1.769531 -6.488281 1.8125 -6.4375 C 1.863281 -6.394531 1.898438 -6.316406 1.921875 -6.203125 Z M 2 -5.203125 "/></g></g></g><g fill="#084a5e" fill-opacity="1"><g transform="translate(42.988924, 18.65215)"><g><path d="M 2.0625 -1.5625 C 2.269531 -1.28125 2.5 -1.082031 2.75 -0.96875 C 3 -0.851562 3.273438 -0.796875 3.578125 -0.796875 C 4.191406 -0.796875 4.660156 -1.007812 4.984375 -1.4375 C 5.304688 -1.875 5.46875 -2.519531 5.46875 -3.375 C 5.46875 -4.175781 5.320312 -4.765625 5.03125 -5.140625 C 4.75 -5.515625 4.335938 -5.703125 3.796875 -5.703125 C 3.421875 -5.703125 3.09375 -5.613281 2.8125 -5.4375 C 2.539062 -5.269531 2.289062 -5.03125 2.0625 -4.71875 Z M 2.0625 -5.578125 C 2.332031 -5.890625 2.640625 -6.140625 2.984375 -6.328125 C 3.328125 -6.515625 3.722656 -6.609375 4.171875 -6.609375 C 4.554688 -6.609375 4.898438 -6.535156 5.203125 -6.390625 C 5.515625 -6.242188 5.773438 -6.03125 5.984375 -5.75 C 6.203125 -5.476562 6.367188 -5.144531 6.484375 -4.75 C 6.597656 -4.363281 6.65625 -3.921875 6.65625 -3.421875 C 6.65625 -2.898438 6.585938 -2.421875 6.453125 -1.984375 C 6.328125 -1.554688 6.144531 -1.1875 5.90625 -0.875 C 5.664062 -0.570312 5.367188 -0.332031 5.015625 -0.15625 C 4.671875 0.0078125 4.28125 0.09375 3.84375 0.09375 C 3.414062 0.09375 3.054688 0.015625 2.765625 -0.140625 C 2.472656 -0.304688 2.21875 -0.535156 2 -0.828125 L 1.9375 -0.25 C 1.90625 -0.0820312 1.804688 0 1.640625 0 L 0.90625 0 L 0.90625 -9.46875 L 2.0625 -9.46875 Z M 2.0625 -5.578125 "/></g></g></g><g fill="#084a5e" fill-opacity="1"><g transform="translate(50.185646, 18.65215)"><g><path d="M 2.109375 -6.515625 L 2.109375 0 L 0.96875 0 L 0.96875 -6.515625 Z M 2.359375 -8.5625 C 2.359375 -8.445312 2.332031 -8.335938 2.28125 -8.234375 C 2.238281 -8.140625 2.179688 -8.054688 2.109375 -7.984375 C 2.035156 -7.910156 1.945312 -7.851562 1.84375 -7.8125 C 1.75 -7.769531 1.644531 -7.75 1.53125 -7.75 C 1.414062 -7.75 1.3125 -7.769531 1.21875 -7.8125 C 1.125 -7.851562 1.039062 -7.910156 0.96875 -7.984375 C 0.894531 -8.054688 0.832031 -8.140625 0.78125 -8.234375 C 0.738281 -8.335938 0.71875 -8.445312 0.71875 -8.5625 C 0.71875 -8.664062 0.738281 -8.769531 0.78125 -8.875 C 0.832031 -8.976562 0.894531 -9.066406 0.96875 -9.140625 C 1.039062 -9.210938 1.125 -9.269531 1.21875 -9.3125 C 1.3125 -9.351562 1.414062 -9.375 1.53125 -9.375 C 1.644531 -9.375 1.75 -9.351562 1.84375 -9.3125 C 1.945312 -9.269531 2.035156 -9.210938 2.109375 -9.140625 C 2.179688 -9.066406 2.238281 -8.976562 2.28125 -8.875 C 2.332031 -8.769531 2.359375 -8.664062 2.359375 -8.5625 Z M 2.359375 -8.5625 "/></g></g></g><g fill="#084a5e" fill-opacity="1"><g transform="translate(53.269956, 18.65215)"><g><path d="M 2.90625 0.109375 C 2.394531 0.109375 2 -0.0351562 1.71875 -0.328125 C 1.445312 -0.617188 1.3125 -1.03125 1.3125 -1.5625 L 1.3125 -5.5625 L 0.515625 -5.5625 C 0.453125 -5.5625 0.394531 -5.578125 0.34375 -5.609375 C 0.300781 -5.648438 0.28125 -5.71875 0.28125 -5.8125 L 0.28125 -6.265625 L 1.34375 -6.390625 L 1.609375 -8.40625 C 1.617188 -8.46875 1.644531 -8.519531 1.6875 -8.5625 C 1.738281 -8.601562 1.800781 -8.625 1.875 -8.625 L 2.453125 -8.625 L 2.453125 -6.390625 L 4.328125 -6.390625 L 4.328125 -5.5625 L 2.453125 -5.5625 L 2.453125 -1.640625 C 2.453125 -1.367188 2.515625 -1.164062 2.640625 -1.03125 C 2.773438 -0.894531 2.945312 -0.828125 3.15625 -0.828125 C 3.28125 -0.828125 3.382812 -0.84375 3.46875 -0.875 C 3.5625 -0.914062 3.640625 -0.953125 3.703125 -0.984375 C 3.765625 -1.023438 3.816406 -1.0625 3.859375 -1.09375 C 3.910156 -1.125 3.953125 -1.140625 3.984375 -1.140625 C 4.046875 -1.140625 4.097656 -1.101562 4.140625 -1.03125 L 4.484375 -0.484375 C 4.285156 -0.304688 4.046875 -0.160156 3.765625 -0.046875 C 3.484375 0.0546875 3.195312 0.109375 2.90625 0.109375 Z M 2.90625 0.109375 "/></g></g></g><g fill="#084a5e" fill-opacity="1"><g transform="translate(57.877143, 18.65215)"><g><path d="M 4.4375 -2.9375 C 3.90625 -2.914062 3.453125 -2.867188 3.078125 -2.796875 C 2.710938 -2.734375 2.410156 -2.648438 2.171875 -2.546875 C 1.941406 -2.441406 1.773438 -2.316406 1.671875 -2.171875 C 1.566406 -2.023438 1.515625 -1.859375 1.515625 -1.671875 C 1.515625 -1.503906 1.539062 -1.359375 1.59375 -1.234375 C 1.65625 -1.109375 1.734375 -1.003906 1.828125 -0.921875 C 1.921875 -0.847656 2.03125 -0.789062 2.15625 -0.75 C 2.289062 -0.71875 2.4375 -0.703125 2.59375 -0.703125 C 2.789062 -0.703125 2.972656 -0.722656 3.140625 -0.765625 C 3.304688 -0.804688 3.460938 -0.863281 3.609375 -0.9375 C 3.765625 -1.007812 3.910156 -1.097656 4.046875 -1.203125 C 4.179688 -1.316406 4.3125 -1.441406 4.4375 -1.578125 Z M 0.734375 -5.59375 C 1.097656 -5.9375 1.488281 -6.191406 1.90625 -6.359375 C 2.320312 -6.535156 2.78125 -6.625 3.28125 -6.625 C 3.644531 -6.625 3.96875 -6.5625 4.25 -6.4375 C 4.539062 -6.320312 4.78125 -6.15625 4.96875 -5.9375 C 5.164062 -5.726562 5.3125 -5.472656 5.40625 -5.171875 C 5.507812 -4.867188 5.5625 -4.535156 5.5625 -4.171875 L 5.5625 0 L 5.046875 0 C 4.929688 0 4.84375 -0.015625 4.78125 -0.046875 C 4.726562 -0.0859375 4.6875 -0.160156 4.65625 -0.265625 L 4.515625 -0.890625 C 4.347656 -0.734375 4.179688 -0.59375 4.015625 -0.46875 C 3.859375 -0.34375 3.6875 -0.238281 3.5 -0.15625 C 3.320312 -0.0703125 3.128906 -0.0078125 2.921875 0.03125 C 2.722656 0.0820312 2.5 0.109375 2.25 0.109375 C 2 0.109375 1.757812 0.0703125 1.53125 0 C 1.3125 -0.0703125 1.117188 -0.175781 0.953125 -0.3125 C 0.785156 -0.457031 0.65625 -0.640625 0.5625 -0.859375 C 0.46875 -1.078125 0.421875 -1.332031 0.421875 -1.625 C 0.421875 -1.882812 0.488281 -2.128906 0.625 -2.359375 C 0.769531 -2.597656 1 -2.8125 1.3125 -3 C 1.632812 -3.1875 2.050781 -3.335938 2.5625 -3.453125 C 3.070312 -3.566406 3.695312 -3.632812 4.4375 -3.65625 L 4.4375 -4.171875 C 4.4375 -4.671875 4.328125 -5.050781 4.109375 -5.3125 C 3.890625 -5.570312 3.570312 -5.703125 3.15625 -5.703125 C 2.863281 -5.703125 2.625 -5.664062 2.4375 -5.59375 C 2.25 -5.519531 2.082031 -5.441406 1.9375 -5.359375 C 1.800781 -5.273438 1.679688 -5.195312 1.578125 -5.125 C 1.484375 -5.050781 1.382812 -5.015625 1.28125 -5.015625 C 1.207031 -5.015625 1.140625 -5.035156 1.078125 -5.078125 C 1.023438 -5.117188 0.976562 -5.171875 0.9375 -5.234375 Z M 0.734375 -5.59375 "/></g></g></g><g fill="#084a5e" fill-opacity="1"><g transform="translate(64.264235, 18.65215)"><g><path d="M 2.09375 -9.46875 L 2.09375 0 L 0.9375 0 L 0.9375 -9.46875 Z M 2.09375 -9.46875 "/></g></g></g><g fill="#1de1d0" fill-opacity="1"><g transform="translate(67.294072, 18.65215)"><g><path d="M 6.40625 -1.046875 L 6.40625 0 L 1.171875 0 L 1.171875 -9.21875 L 2.421875 -9.21875 L 2.421875 -1.046875 Z M 6.40625 -1.046875 "/></g></g></g><g fill="#1de1d0" fill-opacity="1"><g transform="translate(73.893211, 18.65215)"><g><path d="M 2.109375 -6.515625 L 2.109375 0 L 0.96875 0 L 0.96875 -6.515625 Z M 2.359375 -8.5625 C 2.359375 -8.445312 2.332031 -8.335938 2.28125 -8.234375 C 2.238281 -8.140625 2.179688 -8.054688 2.109375 -7.984375 C 2.035156 -7.910156 1.945312 -7.851562 1.84375 -7.8125 C 1.75 -7.769531 1.644531 -7.75 1.53125 -7.75 C 1.414062 -7.75 1.3125 -7.769531 1.21875 -7.8125 C 1.125 -7.851562 1.039062 -7.910156 0.96875 -7.984375 C 0.894531 -8.054688 0.832031 -8.140625 0.78125 -8.234375 C 0.738281 -8.335938 0.71875 -8.445312 0.71875 -8.5625 C 0.71875 -8.664062 0.738281 -8.769531 0.78125 -8.875 C 0.832031 -8.976562 0.894531 -9.066406 0.96875 -9.140625 C 1.039062 -9.210938 1.125 -9.269531 1.21875 -9.3125 C 1.3125 -9.351562 1.414062 -9.375 1.53125 -9.375 C 1.644531 -9.375 1.75 -9.351562 1.84375 -9.3125 C 1.945312 -9.269531 2.035156 -9.210938 2.109375 -9.140625 C 2.179688 -9.066406 2.238281 -8.976562 2.28125 -8.875 C 2.332031 -8.769531 2.359375 -8.664062 2.359375 -8.5625 Z M 2.359375 -8.5625 "/></g></g></g><g fill="#1de1d0" fill-opacity="1"><g transform="translate(76.977521, 18.65215)"><g><path d="M 1.328125 0 L 1.328125 -5.53125 L 0.609375 -5.625 C 0.515625 -5.644531 0.4375 -5.675781 0.375 -5.71875 C 0.320312 -5.757812 0.296875 -5.828125 0.296875 -5.921875 L 0.296875 -6.390625 L 1.328125 -6.390625 L 1.328125 -7.015625 C 1.328125 -7.390625 1.378906 -7.71875 1.484375 -8 C 1.585938 -8.289062 1.738281 -8.535156 1.9375 -8.734375 C 2.132812 -8.941406 2.367188 -9.09375 2.640625 -9.1875 C 2.910156 -9.289062 3.21875 -9.34375 3.5625 -9.34375 C 3.851562 -9.34375 4.125 -9.300781 4.375 -9.21875 L 4.34375 -8.640625 C 4.332031 -8.546875 4.273438 -8.492188 4.171875 -8.484375 C 4.066406 -8.472656 3.925781 -8.46875 3.75 -8.46875 C 3.550781 -8.46875 3.375 -8.441406 3.21875 -8.390625 C 3.0625 -8.335938 2.921875 -8.253906 2.796875 -8.140625 C 2.679688 -8.023438 2.59375 -7.875 2.53125 -7.6875 C 2.46875 -7.5 2.4375 -7.265625 2.4375 -6.984375 L 2.4375 -6.390625 L 4.328125 -6.390625 L 4.328125 -5.5625 L 2.484375 -5.5625 L 2.484375 0 Z M 1.328125 0 "/></g></g></g><g fill="#1de1d0" fill-opacity="1"><g transform="translate(81.481897, 18.65215)"><g><path d="M 5.265625 -3.96875 C 5.265625 -4.226562 5.226562 -4.46875 5.15625 -4.6875 C 5.082031 -4.914062 4.972656 -5.109375 4.828125 -5.265625 C 4.679688 -5.429688 4.503906 -5.554688 4.296875 -5.640625 C 4.097656 -5.734375 3.863281 -5.78125 3.59375 -5.78125 C 3.050781 -5.78125 2.617188 -5.617188 2.296875 -5.296875 C 1.972656 -4.972656 1.773438 -4.53125 1.703125 -3.96875 Z M 6.1875 -0.90625 C 6.050781 -0.738281 5.882812 -0.59375 5.6875 -0.46875 C 5.488281 -0.34375 5.273438 -0.238281 5.046875 -0.15625 C 4.828125 -0.0703125 4.597656 -0.0078125 4.359375 0.03125 C 4.117188 0.0703125 3.878906 0.09375 3.640625 0.09375 C 3.191406 0.09375 2.773438 0.0195312 2.390625 -0.125 C 2.015625 -0.28125 1.6875 -0.503906 1.40625 -0.796875 C 1.132812 -1.097656 0.921875 -1.460938 0.765625 -1.890625 C 0.609375 -2.328125 0.53125 -2.828125 0.53125 -3.390625 C 0.53125 -3.835938 0.597656 -4.257812 0.734375 -4.65625 C 0.878906 -5.050781 1.082031 -5.394531 1.34375 -5.6875 C 1.601562 -5.976562 1.921875 -6.203125 2.296875 -6.359375 C 2.679688 -6.523438 3.109375 -6.609375 3.578125 -6.609375 C 3.960938 -6.609375 4.320312 -6.539062 4.65625 -6.40625 C 4.988281 -6.28125 5.273438 -6.09375 5.515625 -5.84375 C 5.765625 -5.601562 5.957031 -5.300781 6.09375 -4.9375 C 6.226562 -4.570312 6.296875 -4.160156 6.296875 -3.703125 C 6.296875 -3.523438 6.273438 -3.40625 6.234375 -3.34375 C 6.191406 -3.28125 6.117188 -3.25 6.015625 -3.25 L 1.671875 -3.25 C 1.679688 -2.84375 1.734375 -2.484375 1.828125 -2.171875 C 1.929688 -1.867188 2.070312 -1.613281 2.25 -1.40625 C 2.4375 -1.207031 2.648438 -1.054688 2.890625 -0.953125 C 3.140625 -0.859375 3.421875 -0.8125 3.734375 -0.8125 C 4.023438 -0.8125 4.273438 -0.84375 4.484375 -0.90625 C 4.691406 -0.976562 4.867188 -1.050781 5.015625 -1.125 C 5.160156 -1.195312 5.285156 -1.265625 5.390625 -1.328125 C 5.492188 -1.398438 5.582031 -1.4375 5.65625 -1.4375 C 5.75 -1.4375 5.820312 -1.398438 5.875 -1.328125 Z M 6.1875 -0.90625 "/></g></g></g><g fill="#084a5e" fill-opacity="1"><g transform="translate(36.306587, 25.06888)"><g><path d="M 2.875 -3.203125 L 1.8125 -3.203125 L 1.421875 0 L 0.953125 0 L 1.34375 -3.203125 L 0.28125 -3.203125 L 0.328125 -3.609375 L 2.921875 -3.609375 Z M 2.875 -3.203125 "/></g></g></g><g fill="#084a5e" fill-opacity="1"><g transform="translate(39.05459, 25.06888)"><g><path d="M 1.4375 -2.265625 C 1.332031 -2.265625 1.234375 -2.238281 1.140625 -2.1875 C 1.054688 -2.144531 0.976562 -2.085938 0.90625 -2.015625 C 0.84375 -1.941406 0.785156 -1.851562 0.734375 -1.75 C 0.691406 -1.644531 0.65625 -1.53125 0.625 -1.40625 C 0.882812 -1.445312 1.09375 -1.484375 1.25 -1.515625 C 1.40625 -1.554688 1.523438 -1.601562 1.609375 -1.65625 C 1.691406 -1.707031 1.742188 -1.757812 1.765625 -1.8125 C 1.796875 -1.863281 1.8125 -1.921875 1.8125 -1.984375 C 1.8125 -2.015625 1.804688 -2.046875 1.796875 -2.078125 C 1.785156 -2.109375 1.765625 -2.132812 1.734375 -2.15625 C 1.703125 -2.1875 1.660156 -2.210938 1.609375 -2.234375 C 1.566406 -2.253906 1.507812 -2.265625 1.4375 -2.265625 Z M 2.15625 -0.46875 C 2.070312 -0.382812 1.988281 -0.304688 1.90625 -0.234375 C 1.820312 -0.171875 1.738281 -0.117188 1.65625 -0.078125 C 1.570312 -0.0351562 1.484375 -0.0078125 1.390625 0 C 1.296875 0.0195312 1.191406 0.03125 1.078125 0.03125 C 0.929688 0.03125 0.800781 0.0078125 0.6875 -0.03125 C 0.570312 -0.0820312 0.472656 -0.148438 0.390625 -0.234375 C 0.316406 -0.328125 0.253906 -0.4375 0.203125 -0.5625 C 0.160156 -0.695312 0.140625 -0.84375 0.140625 -1 C 0.140625 -1.125 0.15625 -1.25 0.1875 -1.375 C 0.21875 -1.507812 0.257812 -1.632812 0.3125 -1.75 C 0.363281 -1.875 0.425781 -1.984375 0.5 -2.078125 C 0.570312 -2.179688 0.65625 -2.269531 0.75 -2.34375 C 0.851562 -2.414062 0.960938 -2.472656 1.078125 -2.515625 C 1.203125 -2.554688 1.332031 -2.578125 1.46875 -2.578125 C 1.59375 -2.578125 1.703125 -2.554688 1.796875 -2.515625 C 1.890625 -2.484375 1.96875 -2.4375 2.03125 -2.375 C 2.09375 -2.320312 2.140625 -2.257812 2.171875 -2.1875 C 2.203125 -2.125 2.21875 -2.0625 2.21875 -2 C 2.21875 -1.894531 2.191406 -1.796875 2.140625 -1.703125 C 2.097656 -1.609375 2.015625 -1.519531 1.890625 -1.4375 C 1.773438 -1.363281 1.609375 -1.300781 1.390625 -1.25 C 1.179688 -1.195312 0.910156 -1.148438 0.578125 -1.109375 C 0.578125 -1.097656 0.578125 -1.082031 0.578125 -1.0625 C 0.578125 -1.039062 0.578125 -1.023438 0.578125 -1.015625 C 0.578125 -0.785156 0.625 -0.609375 0.71875 -0.484375 C 0.820312 -0.367188 0.972656 -0.3125 1.171875 -0.3125 C 1.253906 -0.3125 1.328125 -0.320312 1.390625 -0.34375 C 1.453125 -0.363281 1.503906 -0.382812 1.546875 -0.40625 C 1.597656 -0.425781 1.644531 -0.453125 1.6875 -0.484375 C 1.726562 -0.515625 1.765625 -0.539062 1.796875 -0.5625 C 1.828125 -0.582031 1.851562 -0.601562 1.875 -0.625 C 1.90625 -0.644531 1.929688 -0.65625 1.953125 -0.65625 C 1.984375 -0.65625 2.015625 -0.640625 2.046875 -0.609375 Z M 2.15625 -0.46875 "/></g></g></g><g fill="#084a5e" fill-opacity="1"><g transform="translate(41.46287, 25.06888)"><g><path d="M 2.0625 -0.453125 C 1.96875 -0.359375 1.878906 -0.28125 1.796875 -0.21875 C 1.722656 -0.15625 1.644531 -0.101562 1.5625 -0.0625 C 1.488281 -0.03125 1.410156 -0.0078125 1.328125 0 C 1.242188 0.0195312 1.148438 0.03125 1.046875 0.03125 C 0.898438 0.03125 0.769531 0.0078125 0.65625 -0.03125 C 0.550781 -0.0820312 0.457031 -0.15625 0.375 -0.25 C 0.300781 -0.34375 0.242188 -0.453125 0.203125 -0.578125 C 0.160156 -0.710938 0.140625 -0.851562 0.140625 -1 C 0.140625 -1.207031 0.171875 -1.40625 0.234375 -1.59375 C 0.304688 -1.789062 0.398438 -1.960938 0.515625 -2.109375 C 0.628906 -2.253906 0.765625 -2.367188 0.921875 -2.453125 C 1.085938 -2.535156 1.265625 -2.578125 1.453125 -2.578125 C 1.617188 -2.578125 1.757812 -2.546875 1.875 -2.484375 C 1.988281 -2.429688 2.085938 -2.347656 2.171875 -2.234375 L 2.03125 -2.0625 C 2.019531 -2.050781 2.003906 -2.039062 1.984375 -2.03125 C 1.972656 -2.019531 1.960938 -2.015625 1.953125 -2.015625 C 1.921875 -2.015625 1.894531 -2.023438 1.875 -2.046875 C 1.851562 -2.066406 1.820312 -2.085938 1.78125 -2.109375 C 1.75 -2.140625 1.703125 -2.164062 1.640625 -2.1875 C 1.585938 -2.207031 1.519531 -2.21875 1.4375 -2.21875 C 1.320312 -2.21875 1.210938 -2.1875 1.109375 -2.125 C 1.015625 -2.0625 0.925781 -1.972656 0.84375 -1.859375 C 0.769531 -1.753906 0.707031 -1.628906 0.65625 -1.484375 C 0.613281 -1.335938 0.59375 -1.175781 0.59375 -1 C 0.59375 -0.894531 0.601562 -0.800781 0.625 -0.71875 C 0.65625 -0.632812 0.691406 -0.5625 0.734375 -0.5 C 0.785156 -0.445312 0.84375 -0.398438 0.90625 -0.359375 C 0.976562 -0.328125 1.054688 -0.3125 1.140625 -0.3125 C 1.253906 -0.3125 1.347656 -0.328125 1.421875 -0.359375 C 1.503906 -0.398438 1.570312 -0.4375 1.625 -0.46875 C 1.675781 -0.507812 1.71875 -0.546875 1.75 -0.578125 C 1.789062 -0.617188 1.828125 -0.640625 1.859375 -0.640625 C 1.890625 -0.640625 1.921875 -0.625 1.953125 -0.59375 Z M 2.0625 -0.453125 "/></g></g></g><g fill="#084a5e" fill-opacity="1"><g transform="translate(43.750358, 25.06888)"><g><path d="M 0.796875 -1.90625 C 0.929688 -2.125 1.082031 -2.289062 1.25 -2.40625 C 1.414062 -2.53125 1.59375 -2.59375 1.78125 -2.59375 C 1.882812 -2.59375 1.976562 -2.566406 2.0625 -2.515625 C 2.144531 -2.472656 2.210938 -2.410156 2.265625 -2.328125 C 2.316406 -2.253906 2.347656 -2.15625 2.359375 -2.03125 C 2.378906 -1.90625 2.378906 -1.769531 2.359375 -1.625 L 2.171875 0 L 1.734375 0 L 1.921875 -1.625 C 1.941406 -1.820312 1.925781 -1.96875 1.875 -2.0625 C 1.832031 -2.164062 1.742188 -2.21875 1.609375 -2.21875 C 1.523438 -2.21875 1.441406 -2.191406 1.359375 -2.140625 C 1.285156 -2.097656 1.207031 -2.035156 1.125 -1.953125 C 1.050781 -1.878906 0.976562 -1.785156 0.90625 -1.671875 C 0.84375 -1.554688 0.785156 -1.429688 0.734375 -1.296875 L 0.59375 0 L 0.140625 0 L 0.453125 -2.546875 L 0.671875 -2.546875 C 0.773438 -2.546875 0.828125 -2.5 0.828125 -2.40625 Z M 0.796875 -1.90625 "/></g></g></g><g fill="#084a5e" fill-opacity="1"><g transform="translate(46.417836, 25.06888)"><g><path d="M 1.140625 -0.3125 C 1.265625 -0.3125 1.375 -0.34375 1.46875 -0.40625 C 1.570312 -0.476562 1.660156 -0.566406 1.734375 -0.671875 C 1.804688 -0.785156 1.859375 -0.914062 1.890625 -1.0625 C 1.929688 -1.207031 1.953125 -1.363281 1.953125 -1.53125 C 1.953125 -1.757812 1.90625 -1.929688 1.8125 -2.046875 C 1.71875 -2.171875 1.582031 -2.234375 1.40625 -2.234375 C 1.28125 -2.234375 1.164062 -2.195312 1.0625 -2.125 C 0.96875 -2.0625 0.882812 -1.972656 0.8125 -1.859375 C 0.75 -1.753906 0.695312 -1.628906 0.65625 -1.484375 C 0.613281 -1.335938 0.59375 -1.1875 0.59375 -1.03125 C 0.59375 -0.789062 0.640625 -0.609375 0.734375 -0.484375 C 0.828125 -0.367188 0.960938 -0.3125 1.140625 -0.3125 Z M 1.09375 0.03125 C 0.957031 0.03125 0.832031 0.0078125 0.71875 -0.03125 C 0.601562 -0.0820312 0.503906 -0.148438 0.421875 -0.234375 C 0.335938 -0.328125 0.269531 -0.4375 0.21875 -0.5625 C 0.164062 -0.695312 0.140625 -0.851562 0.140625 -1.03125 C 0.140625 -1.238281 0.171875 -1.4375 0.234375 -1.625 C 0.304688 -1.820312 0.398438 -1.988281 0.515625 -2.125 C 0.640625 -2.269531 0.78125 -2.382812 0.9375 -2.46875 C 1.09375 -2.550781 1.265625 -2.59375 1.453125 -2.59375 C 1.585938 -2.59375 1.710938 -2.566406 1.828125 -2.515625 C 1.941406 -2.460938 2.039062 -2.390625 2.125 -2.296875 C 2.21875 -2.210938 2.285156 -2.101562 2.328125 -1.96875 C 2.378906 -1.84375 2.40625 -1.695312 2.40625 -1.53125 C 2.40625 -1.3125 2.367188 -1.109375 2.296875 -0.921875 C 2.234375 -0.734375 2.140625 -0.566406 2.015625 -0.421875 C 1.898438 -0.285156 1.765625 -0.175781 1.609375 -0.09375 C 1.453125 -0.0078125 1.28125 0.03125 1.09375 0.03125 Z M 1.09375 0.03125 "/></g></g></g><g fill="#084a5e" fill-opacity="1"><g transform="translate(49.029951, 25.06888)"><g><path d="M 0.15625 0 L 0.609375 -3.703125 L 1.046875 -3.703125 L 0.59375 0 Z M 0.15625 0 "/></g></g></g><g fill="#084a5e" fill-opacity="1"><g transform="translate(50.162372, 25.06888)"><g><path d="M 1.140625 -0.3125 C 1.265625 -0.3125 1.375 -0.34375 1.46875 -0.40625 C 1.570312 -0.476562 1.660156 -0.566406 1.734375 -0.671875 C 1.804688 -0.785156 1.859375 -0.914062 1.890625 -1.0625 C 1.929688 -1.207031 1.953125 -1.363281 1.953125 -1.53125 C 1.953125 -1.757812 1.90625 -1.929688 1.8125 -2.046875 C 1.71875 -2.171875 1.582031 -2.234375 1.40625 -2.234375 C 1.28125 -2.234375 1.164062 -2.195312 1.0625 -2.125 C 0.96875 -2.0625 0.882812 -1.972656 0.8125 -1.859375 C 0.75 -1.753906 0.695312 -1.628906 0.65625 -1.484375 C 0.613281 -1.335938 0.59375 -1.1875 0.59375 -1.03125 C 0.59375 -0.789062 0.640625 -0.609375 0.734375 -0.484375 C 0.828125 -0.367188 0.960938 -0.3125 1.140625 -0.3125 Z M 1.09375 0.03125 C 0.957031 0.03125 0.832031 0.0078125 0.71875 -0.03125 C 0.601562 -0.0820312 0.503906 -0.148438 0.421875 -0.234375 C 0.335938 -0.328125 0.269531 -0.4375 0.21875 -0.5625 C 0.164062 -0.695312 0.140625 -0.851562 0.140625 -1.03125 C 0.140625 -1.238281 0.171875 -1.4375 0.234375 -1.625 C 0.304688 -1.820312 0.398438 -1.988281 0.515625 -2.125 C 0.640625 -2.269531 0.78125 -2.382812 0.9375 -2.46875 C 1.09375 -2.550781 1.265625 -2.59375 1.453125 -2.59375 C 1.585938 -2.59375 1.710938 -2.566406 1.828125 -2.515625 C 1.941406 -2.460938 2.039062 -2.390625 2.125 -2.296875 C 2.21875 -2.210938 2.285156 -2.101562 2.328125 -1.96875 C 2.378906 -1.84375 2.40625 -1.695312 2.40625 -1.53125 C 2.40625 -1.3125 2.367188 -1.109375 2.296875 -0.921875 C 2.234375 -0.734375 2.140625 -0.566406 2.015625 -0.421875 C 1.898438 -0.285156 1.765625 -0.175781 1.609375 -0.09375 C 1.453125 -0.0078125 1.28125 0.03125 1.09375 0.03125 Z M 1.09375 0.03125 "/></g></g></g><g fill="#084a5e" fill-opacity="1"><g transform="translate(52.774488, 25.06888)"><g><path d="M 1.109375 -1.15625 C 1.191406 -1.15625 1.269531 -1.171875 1.34375 -1.203125 C 1.414062 -1.242188 1.472656 -1.296875 1.515625 -1.359375 C 1.566406 -1.429688 1.601562 -1.503906 1.625 -1.578125 C 1.65625 -1.660156 1.671875 -1.742188 1.671875 -1.828125 C 1.671875 -1.972656 1.628906 -2.082031 1.546875 -2.15625 C 1.472656 -2.238281 1.375 -2.28125 1.25 -2.28125 C 1.15625 -2.28125 1.070312 -2.257812 1 -2.21875 C 0.9375 -2.175781 0.878906 -2.125 0.828125 -2.0625 C 0.785156 -2.007812 0.75 -1.941406 0.71875 -1.859375 C 0.695312 -1.773438 0.6875 -1.691406 0.6875 -1.609375 C 0.6875 -1.460938 0.722656 -1.347656 0.796875 -1.265625 C 0.867188 -1.191406 0.972656 -1.15625 1.109375 -1.15625 Z M 1.609375 0.0625 C 1.609375 0.0195312 1.601562 -0.0195312 1.59375 -0.0625 C 1.582031 -0.101562 1.570312 -0.140625 1.5625 -0.171875 C 1.34375 -0.203125 1.148438 -0.210938 0.984375 -0.203125 C 0.828125 -0.191406 0.695312 -0.164062 0.59375 -0.125 C 0.488281 -0.09375 0.410156 -0.046875 0.359375 0.015625 C 0.304688 0.0859375 0.28125 0.160156 0.28125 0.234375 C 0.28125 0.347656 0.332031 0.4375 0.4375 0.5 C 0.539062 0.5625 0.6875 0.59375 0.875 0.59375 C 0.976562 0.59375 1.078125 0.578125 1.171875 0.546875 C 1.265625 0.523438 1.34375 0.488281 1.40625 0.4375 C 1.46875 0.394531 1.515625 0.335938 1.546875 0.265625 C 1.585938 0.203125 1.609375 0.132812 1.609375 0.0625 Z M 2.46875 -2.453125 L 2.453125 -2.3125 C 2.441406 -2.25 2.40625 -2.207031 2.34375 -2.1875 L 2.03125 -2.125 C 2.0625 -2.039062 2.078125 -1.945312 2.078125 -1.84375 C 2.078125 -1.757812 2.066406 -1.679688 2.046875 -1.609375 C 2.023438 -1.546875 2 -1.484375 1.96875 -1.421875 C 1.945312 -1.367188 1.914062 -1.316406 1.875 -1.265625 C 1.84375 -1.210938 1.8125 -1.160156 1.78125 -1.109375 C 1.757812 -1.066406 1.738281 -1.019531 1.71875 -0.96875 C 1.695312 -0.914062 1.6875 -0.859375 1.6875 -0.796875 C 1.6875 -0.742188 1.691406 -0.695312 1.703125 -0.65625 C 1.722656 -0.613281 1.742188 -0.570312 1.765625 -0.53125 C 1.796875 -0.5 1.820312 -0.460938 1.84375 -0.421875 C 1.875 -0.378906 1.898438 -0.332031 1.921875 -0.28125 C 1.953125 -0.238281 1.972656 -0.191406 1.984375 -0.140625 C 2.003906 -0.0859375 2.015625 -0.03125 2.015625 0.03125 C 2.015625 0.144531 1.984375 0.253906 1.921875 0.359375 C 1.867188 0.472656 1.789062 0.566406 1.6875 0.640625 C 1.59375 0.722656 1.472656 0.789062 1.328125 0.84375 C 1.179688 0.894531 1.015625 0.921875 0.828125 0.921875 C 0.679688 0.921875 0.546875 0.90625 0.421875 0.875 C 0.304688 0.84375 0.207031 0.796875 0.125 0.734375 C 0.0390625 0.679688 -0.0195312 0.613281 -0.0625 0.53125 C -0.113281 0.457031 -0.140625 0.375 -0.140625 0.28125 C -0.140625 0.175781 -0.113281 0.0820312 -0.0625 0 C -0.0195312 -0.0820312 0.0351562 -0.148438 0.109375 -0.203125 C 0.179688 -0.265625 0.269531 -0.316406 0.375 -0.359375 C 0.476562 -0.398438 0.585938 -0.425781 0.703125 -0.4375 C 0.816406 -0.457031 0.929688 -0.46875 1.046875 -0.46875 C 1.171875 -0.46875 1.289062 -0.457031 1.40625 -0.4375 C 1.394531 -0.476562 1.382812 -0.515625 1.375 -0.546875 C 1.363281 -0.578125 1.359375 -0.613281 1.359375 -0.65625 C 1.359375 -0.707031 1.363281 -0.757812 1.375 -0.8125 C 1.394531 -0.875 1.425781 -0.9375 1.46875 -1 C 1.40625 -0.957031 1.332031 -0.925781 1.25 -0.90625 C 1.175781 -0.882812 1.085938 -0.875 0.984375 -0.875 C 0.890625 -0.875 0.796875 -0.890625 0.703125 -0.921875 C 0.617188 -0.953125 0.546875 -1 0.484375 -1.0625 C 0.421875 -1.125 0.367188 -1.195312 0.328125 -1.28125 C 0.296875 -1.375 0.28125 -1.484375 0.28125 -1.609375 C 0.28125 -1.734375 0.300781 -1.851562 0.34375 -1.96875 C 0.394531 -2.082031 0.460938 -2.1875 0.546875 -2.28125 C 0.628906 -2.375 0.734375 -2.445312 0.859375 -2.5 C 0.984375 -2.5625 1.128906 -2.59375 1.296875 -2.59375 C 1.390625 -2.59375 1.472656 -2.578125 1.546875 -2.546875 C 1.628906 -2.523438 1.707031 -2.492188 1.78125 -2.453125 Z M 2.46875 -2.453125 "/></g></g></g><g fill="#084a5e" fill-opacity="1"><g transform="translate(55.210449, 25.06888)"><g><path d="M 0.921875 -2.546875 L 0.609375 0 L 0.171875 0 L 0.484375 -2.546875 Z M 1.09375 -3.34375 C 1.09375 -3.300781 1.082031 -3.257812 1.0625 -3.21875 C 1.039062 -3.1875 1.015625 -3.15625 0.984375 -3.125 C 0.960938 -3.09375 0.929688 -3.066406 0.890625 -3.046875 C 0.859375 -3.035156 0.820312 -3.03125 0.78125 -3.03125 C 0.738281 -3.03125 0.695312 -3.035156 0.65625 -3.046875 C 0.625 -3.066406 0.59375 -3.09375 0.5625 -3.125 C 0.539062 -3.15625 0.519531 -3.1875 0.5 -3.21875 C 0.476562 -3.257812 0.46875 -3.300781 0.46875 -3.34375 C 0.46875 -3.382812 0.476562 -3.425781 0.5 -3.46875 C 0.519531 -3.507812 0.539062 -3.546875 0.5625 -3.578125 C 0.59375 -3.609375 0.625 -3.628906 0.65625 -3.640625 C 0.695312 -3.660156 0.738281 -3.671875 0.78125 -3.671875 C 0.820312 -3.671875 0.859375 -3.660156 0.890625 -3.640625 C 0.929688 -3.628906 0.960938 -3.609375 0.984375 -3.578125 C 1.015625 -3.546875 1.039062 -3.507812 1.0625 -3.46875 C 1.082031 -3.425781 1.09375 -3.382812 1.09375 -3.34375 Z M 1.09375 -3.34375 "/></g></g></g><g fill="#084a5e" fill-opacity="1"><g transform="translate(56.368034, 25.06888)"><g><path d="M 1.890625 -2.234375 C 1.859375 -2.242188 1.820312 -2.25 1.78125 -2.25 C 1.75 -2.25 1.710938 -2.25 1.671875 -2.25 C 1.578125 -2.25 1.484375 -2.234375 1.390625 -2.203125 C 1.296875 -2.171875 1.207031 -2.125 1.125 -2.0625 C 1.039062 -2.007812 0.960938 -1.941406 0.890625 -1.859375 C 0.828125 -1.773438 0.769531 -1.6875 0.71875 -1.59375 C 0.675781 -1.5 0.640625 -1.394531 0.609375 -1.28125 C 0.585938 -1.164062 0.578125 -1.050781 0.578125 -0.9375 C 0.578125 -0.539062 0.707031 -0.34375 0.96875 -0.34375 C 1.039062 -0.34375 1.117188 -0.363281 1.203125 -0.40625 C 1.285156 -0.457031 1.359375 -0.53125 1.421875 -0.625 C 1.492188 -0.71875 1.5625 -0.828125 1.625 -0.953125 C 1.6875 -1.078125 1.738281 -1.210938 1.78125 -1.359375 Z M 1.71875 -0.671875 C 1.65625 -0.566406 1.585938 -0.46875 1.515625 -0.375 C 1.453125 -0.289062 1.378906 -0.21875 1.296875 -0.15625 C 1.222656 -0.09375 1.144531 -0.046875 1.0625 -0.015625 C 0.976562 0.015625 0.890625 0.03125 0.796875 0.03125 C 0.691406 0.03125 0.597656 0.015625 0.515625 -0.015625 C 0.429688 -0.0546875 0.359375 -0.113281 0.296875 -0.1875 C 0.242188 -0.269531 0.203125 -0.363281 0.171875 -0.46875 C 0.140625 -0.582031 0.125 -0.710938 0.125 -0.859375 C 0.125 -1.015625 0.140625 -1.160156 0.171875 -1.296875 C 0.210938 -1.441406 0.269531 -1.578125 0.34375 -1.703125 C 0.414062 -1.835938 0.5 -1.957031 0.59375 -2.0625 C 0.6875 -2.164062 0.789062 -2.253906 0.90625 -2.328125 C 1.03125 -2.410156 1.160156 -2.472656 1.296875 -2.515625 C 1.441406 -2.554688 1.585938 -2.578125 1.734375 -2.578125 C 1.847656 -2.578125 1.957031 -2.566406 2.0625 -2.546875 C 2.164062 -2.535156 2.265625 -2.507812 2.359375 -2.46875 L 2.0625 0 L 1.828125 0 C 1.765625 0 1.722656 -0.015625 1.703125 -0.046875 C 1.679688 -0.078125 1.671875 -0.113281 1.671875 -0.15625 Z M 1.71875 -0.671875 "/></g></g></g><g fill="#084a5e" fill-opacity="1"><g transform="translate(58.939883, 25.06888)"><g/></g></g><g fill="#084a5e" fill-opacity="1"><g transform="translate(60.1176, 25.06888)"><g><path d="M 1.4375 -2.265625 C 1.332031 -2.265625 1.234375 -2.238281 1.140625 -2.1875 C 1.054688 -2.144531 0.976562 -2.085938 0.90625 -2.015625 C 0.84375 -1.941406 0.785156 -1.851562 0.734375 -1.75 C 0.691406 -1.644531 0.65625 -1.53125 0.625 -1.40625 C 0.882812 -1.445312 1.09375 -1.484375 1.25 -1.515625 C 1.40625 -1.554688 1.523438 -1.601562 1.609375 -1.65625 C 1.691406 -1.707031 1.742188 -1.757812 1.765625 -1.8125 C 1.796875 -1.863281 1.8125 -1.921875 1.8125 -1.984375 C 1.8125 -2.015625 1.804688 -2.046875 1.796875 -2.078125 C 1.785156 -2.109375 1.765625 -2.132812 1.734375 -2.15625 C 1.703125 -2.1875 1.660156 -2.210938 1.609375 -2.234375 C 1.566406 -2.253906 1.507812 -2.265625 1.4375 -2.265625 Z M 2.15625 -0.46875 C 2.070312 -0.382812 1.988281 -0.304688 1.90625 -0.234375 C 1.820312 -0.171875 1.738281 -0.117188 1.65625 -0.078125 C 1.570312 -0.0351562 1.484375 -0.0078125 1.390625 0 C 1.296875 0.0195312 1.191406 0.03125 1.078125 0.03125 C 0.929688 0.03125 0.800781 0.0078125 0.6875 -0.03125 C 0.570312 -0.0820312 0.472656 -0.148438 0.390625 -0.234375 C 0.316406 -0.328125 0.253906 -0.4375 0.203125 -0.5625 C 0.160156 -0.695312 0.140625 -0.84375 0.140625 -1 C 0.140625 -1.125 0.15625 -1.25 0.1875 -1.375 C 0.21875 -1.507812 0.257812 -1.632812 0.3125 -1.75 C 0.363281 -1.875 0.425781 -1.984375 0.5 -2.078125 C 0.570312 -2.179688 0.65625 -2.269531 0.75 -2.34375 C 0.851562 -2.414062 0.960938 -2.472656 1.078125 -2.515625 C 1.203125 -2.554688 1.332031 -2.578125 1.46875 -2.578125 C 1.59375 -2.578125 1.703125 -2.554688 1.796875 -2.515625 C 1.890625 -2.484375 1.96875 -2.4375 2.03125 -2.375 C 2.09375 -2.320312 2.140625 -2.257812 2.171875 -2.1875 C 2.203125 -2.125 2.21875 -2.0625 2.21875 -2 C 2.21875 -1.894531 2.191406 -1.796875 2.140625 -1.703125 C 2.097656 -1.609375 2.015625 -1.519531 1.890625 -1.4375 C 1.773438 -1.363281 1.609375 -1.300781 1.390625 -1.25 C 1.179688 -1.195312 0.910156 -1.148438 0.578125 -1.109375 C 0.578125 -1.097656 0.578125 -1.082031 0.578125 -1.0625 C 0.578125 -1.039062 0.578125 -1.023438 0.578125 -1.015625 C 0.578125 -0.785156 0.625 -0.609375 0.71875 -0.484375 C 0.820312 -0.367188 0.972656 -0.3125 1.171875 -0.3125 C 1.253906 -0.3125 1.328125 -0.320312 1.390625 -0.34375 C 1.453125 -0.363281 1.503906 -0.382812 1.546875 -0.40625 C 1.597656 -0.425781 1.644531 -0.453125 1.6875 -0.484375 C 1.726562 -0.515625 1.765625 -0.539062 1.796875 -0.5625 C 1.828125 -0.582031 1.851562 -0.601562 1.875 -0.625 C 1.90625 -0.644531 1.929688 -0.65625 1.953125 -0.65625 C 1.984375 -0.65625 2.015625 -0.640625 2.046875 -0.609375 Z M 2.15625 -0.46875 "/></g></g></g><g fill="#084a5e" fill-opacity="1"><g transform="translate(62.525881, 25.06888)"><g><path d="M 0.140625 0 L 0.453125 -2.546875 L 0.671875 -2.546875 C 0.773438 -2.546875 0.828125 -2.5 0.828125 -2.40625 L 0.796875 -1.953125 C 0.921875 -2.160156 1.054688 -2.316406 1.203125 -2.421875 C 1.359375 -2.535156 1.519531 -2.59375 1.6875 -2.59375 C 1.851562 -2.59375 1.976562 -2.53125 2.0625 -2.40625 C 2.144531 -2.289062 2.1875 -2.125 2.1875 -1.90625 C 2.3125 -2.132812 2.453125 -2.304688 2.609375 -2.421875 C 2.765625 -2.535156 2.929688 -2.59375 3.109375 -2.59375 C 3.328125 -2.59375 3.484375 -2.503906 3.578125 -2.328125 C 3.671875 -2.160156 3.695312 -1.925781 3.65625 -1.625 L 3.46875 0 L 3.03125 0 L 3.21875 -1.625 C 3.238281 -1.820312 3.226562 -1.96875 3.1875 -2.0625 C 3.15625 -2.164062 3.078125 -2.21875 2.953125 -2.21875 C 2.878906 -2.21875 2.804688 -2.195312 2.734375 -2.15625 C 2.671875 -2.125 2.601562 -2.070312 2.53125 -2 C 2.46875 -1.925781 2.40625 -1.835938 2.34375 -1.734375 C 2.289062 -1.640625 2.238281 -1.523438 2.1875 -1.390625 L 2.03125 0 L 1.578125 0 L 1.78125 -1.625 C 1.800781 -1.820312 1.796875 -1.96875 1.765625 -2.0625 C 1.734375 -2.164062 1.65625 -2.21875 1.53125 -2.21875 C 1.445312 -2.21875 1.367188 -2.195312 1.296875 -2.15625 C 1.222656 -2.113281 1.148438 -2.050781 1.078125 -1.96875 C 1.015625 -1.894531 0.953125 -1.800781 0.890625 -1.6875 C 0.835938 -1.582031 0.789062 -1.460938 0.75 -1.328125 L 0.59375 0 Z M 0.140625 0 "/></g></g></g><g fill="#084a5e" fill-opacity="1"><g transform="translate(66.48683, 25.06888)"><g/></g></g><g fill="#084a5e" fill-opacity="1"><g transform="translate(67.664548, 25.06888)"><g><path d="M 1.796875 -2.140625 C 1.773438 -2.117188 1.757812 -2.101562 1.75 -2.09375 C 1.738281 -2.082031 1.722656 -2.078125 1.703125 -2.078125 C 1.679688 -2.078125 1.65625 -2.085938 1.625 -2.109375 C 1.59375 -2.128906 1.554688 -2.148438 1.515625 -2.171875 C 1.484375 -2.191406 1.4375 -2.210938 1.375 -2.234375 C 1.320312 -2.253906 1.253906 -2.265625 1.171875 -2.265625 C 1.097656 -2.265625 1.03125 -2.253906 0.96875 -2.234375 C 0.90625 -2.210938 0.847656 -2.179688 0.796875 -2.140625 C 0.753906 -2.109375 0.722656 -2.066406 0.703125 -2.015625 C 0.679688 -1.960938 0.671875 -1.910156 0.671875 -1.859375 C 0.671875 -1.773438 0.695312 -1.707031 0.75 -1.65625 C 0.800781 -1.613281 0.863281 -1.578125 0.9375 -1.546875 C 1.019531 -1.515625 1.101562 -1.484375 1.1875 -1.453125 C 1.28125 -1.421875 1.363281 -1.378906 1.4375 -1.328125 C 1.519531 -1.273438 1.585938 -1.210938 1.640625 -1.140625 C 1.691406 -1.066406 1.71875 -0.96875 1.71875 -0.84375 C 1.71875 -0.726562 1.691406 -0.613281 1.640625 -0.5 C 1.597656 -0.394531 1.535156 -0.300781 1.453125 -0.21875 C 1.367188 -0.144531 1.265625 -0.0820312 1.140625 -0.03125 C 1.023438 0.0195312 0.890625 0.046875 0.734375 0.046875 C 0.566406 0.046875 0.421875 0.015625 0.296875 -0.046875 C 0.171875 -0.109375 0.0703125 -0.179688 0 -0.265625 L 0.109375 -0.4375 C 0.117188 -0.457031 0.132812 -0.472656 0.15625 -0.484375 C 0.175781 -0.503906 0.195312 -0.515625 0.21875 -0.515625 C 0.25 -0.515625 0.273438 -0.5 0.296875 -0.46875 C 0.328125 -0.445312 0.363281 -0.421875 0.40625 -0.390625 C 0.445312 -0.359375 0.5 -0.332031 0.5625 -0.3125 C 0.625 -0.289062 0.703125 -0.28125 0.796875 -0.28125 C 0.878906 -0.28125 0.953125 -0.289062 1.015625 -0.3125 C 1.078125 -0.34375 1.128906 -0.378906 1.171875 -0.421875 C 1.222656 -0.460938 1.257812 -0.507812 1.28125 -0.5625 C 1.3125 -0.625 1.328125 -0.6875 1.328125 -0.75 C 1.328125 -0.832031 1.300781 -0.898438 1.25 -0.953125 C 1.195312 -1.003906 1.128906 -1.046875 1.046875 -1.078125 C 0.972656 -1.109375 0.890625 -1.140625 0.796875 -1.171875 C 0.703125 -1.203125 0.613281 -1.238281 0.53125 -1.28125 C 0.457031 -1.320312 0.394531 -1.378906 0.34375 -1.453125 C 0.289062 -1.535156 0.265625 -1.632812 0.265625 -1.75 C 0.265625 -1.863281 0.285156 -1.96875 0.328125 -2.0625 C 0.367188 -2.164062 0.429688 -2.253906 0.515625 -2.328125 C 0.597656 -2.410156 0.695312 -2.472656 0.8125 -2.515625 C 0.925781 -2.566406 1.054688 -2.59375 1.203125 -2.59375 C 1.347656 -2.59375 1.476562 -2.566406 1.59375 -2.515625 C 1.71875 -2.460938 1.820312 -2.390625 1.90625 -2.296875 Z M 1.796875 -2.140625 "/></g></g></g><g fill="#084a5e" fill-opacity="1"><g transform="translate(69.67774, 25.06888)"><g><path d="M 1.890625 -2.234375 C 1.859375 -2.242188 1.820312 -2.25 1.78125 -2.25 C 1.75 -2.25 1.710938 -2.25 1.671875 -2.25 C 1.578125 -2.25 1.484375 -2.234375 1.390625 -2.203125 C 1.296875 -2.171875 1.207031 -2.125 1.125 -2.0625 C 1.039062 -2.007812 0.960938 -1.941406 0.890625 -1.859375 C 0.828125 -1.773438 0.769531 -1.6875 0.71875 -1.59375 C 0.675781 -1.5 0.640625 -1.394531 0.609375 -1.28125 C 0.585938 -1.164062 0.578125 -1.050781 0.578125 -0.9375 C 0.578125 -0.539062 0.707031 -0.34375 0.96875 -0.34375 C 1.039062 -0.34375 1.117188 -0.363281 1.203125 -0.40625 C 1.285156 -0.457031 1.359375 -0.53125 1.421875 -0.625 C 1.492188 -0.71875 1.5625 -0.828125 1.625 -0.953125 C 1.6875 -1.078125 1.738281 -1.210938 1.78125 -1.359375 Z M 1.71875 -0.671875 C 1.65625 -0.566406 1.585938 -0.46875 1.515625 -0.375 C 1.453125 -0.289062 1.378906 -0.21875 1.296875 -0.15625 C 1.222656 -0.09375 1.144531 -0.046875 1.0625 -0.015625 C 0.976562 0.015625 0.890625 0.03125 0.796875 0.03125 C 0.691406 0.03125 0.597656 0.015625 0.515625 -0.015625 C 0.429688 -0.0546875 0.359375 -0.113281 0.296875 -0.1875 C 0.242188 -0.269531 0.203125 -0.363281 0.171875 -0.46875 C 0.140625 -0.582031 0.125 -0.710938 0.125 -0.859375 C 0.125 -1.015625 0.140625 -1.160156 0.171875 -1.296875 C 0.210938 -1.441406 0.269531 -1.578125 0.34375 -1.703125 C 0.414062 -1.835938 0.5 -1.957031 0.59375 -2.0625 C 0.6875 -2.164062 0.789062 -2.253906 0.90625 -2.328125 C 1.03125 -2.410156 1.160156 -2.472656 1.296875 -2.515625 C 1.441406 -2.554688 1.585938 -2.578125 1.734375 -2.578125 C 1.847656 -2.578125 1.957031 -2.566406 2.0625 -2.546875 C 2.164062 -2.535156 2.265625 -2.507812 2.359375 -2.46875 L 2.0625 0 L 1.828125 0 C 1.765625 0 1.722656 -0.015625 1.703125 -0.046875 C 1.679688 -0.078125 1.671875 -0.113281 1.671875 -0.15625 Z M 1.71875 -0.671875 "/></g></g></g><g fill="#084a5e" fill-opacity="1"><g transform="translate(72.249589, 25.06888)"><g><path d="M 2.453125 -2.546875 L 2.140625 0 L 1.921875 0 C 1.816406 0 1.765625 -0.0507812 1.765625 -0.15625 L 1.796875 -0.625 C 1.660156 -0.40625 1.507812 -0.238281 1.34375 -0.125 C 1.175781 -0.0195312 1.003906 0.03125 0.828125 0.03125 C 0.722656 0.03125 0.628906 0.0078125 0.546875 -0.03125 C 0.460938 -0.0703125 0.394531 -0.132812 0.34375 -0.21875 C 0.289062 -0.300781 0.253906 -0.398438 0.234375 -0.515625 C 0.210938 -0.640625 0.210938 -0.773438 0.234375 -0.921875 L 0.4375 -2.546875 L 0.875 -2.546875 L 0.6875 -0.921875 C 0.664062 -0.722656 0.675781 -0.578125 0.71875 -0.484375 C 0.769531 -0.390625 0.859375 -0.34375 0.984375 -0.34375 C 1.066406 -0.34375 1.148438 -0.363281 1.234375 -0.40625 C 1.316406 -0.445312 1.394531 -0.503906 1.46875 -0.578125 C 1.539062 -0.648438 1.609375 -0.742188 1.671875 -0.859375 C 1.742188 -0.972656 1.800781 -1.09375 1.84375 -1.21875 L 2 -2.546875 Z M 2.015625 -3.640625 L 1.390625 -3 C 1.367188 -2.96875 1.347656 -2.945312 1.328125 -2.9375 C 1.304688 -2.925781 1.28125 -2.921875 1.25 -2.921875 L 1 -2.921875 L 1.40625 -3.53125 C 1.4375 -3.570312 1.460938 -3.597656 1.484375 -3.609375 C 1.515625 -3.628906 1.554688 -3.640625 1.609375 -3.640625 Z M 2.015625 -3.640625 "/></g></g></g><g fill="#084a5e" fill-opacity="1"><g transform="translate(74.914549, 25.06888)"><g><path d="M 1.953125 -2 C 1.878906 -2.082031 1.796875 -2.140625 1.703125 -2.171875 C 1.617188 -2.210938 1.53125 -2.234375 1.4375 -2.234375 C 1.3125 -2.234375 1.191406 -2.191406 1.078125 -2.109375 C 0.972656 -2.035156 0.882812 -1.9375 0.8125 -1.8125 C 0.738281 -1.6875 0.679688 -1.546875 0.640625 -1.390625 C 0.597656 -1.234375 0.578125 -1.082031 0.578125 -0.9375 C 0.578125 -0.738281 0.613281 -0.585938 0.6875 -0.484375 C 0.757812 -0.378906 0.863281 -0.328125 1 -0.328125 C 1.070312 -0.328125 1.148438 -0.347656 1.234375 -0.390625 C 1.316406 -0.441406 1.394531 -0.515625 1.46875 -0.609375 C 1.550781 -0.703125 1.625 -0.804688 1.6875 -0.921875 C 1.757812 -1.046875 1.816406 -1.179688 1.859375 -1.328125 Z M 2.59375 -3.703125 L 2.140625 0 L 1.90625 0 C 1.84375 0 1.800781 -0.015625 1.78125 -0.046875 C 1.769531 -0.078125 1.765625 -0.113281 1.765625 -0.15625 L 1.8125 -0.6875 C 1.738281 -0.582031 1.664062 -0.484375 1.59375 -0.390625 C 1.519531 -0.304688 1.441406 -0.226562 1.359375 -0.15625 C 1.273438 -0.09375 1.1875 -0.046875 1.09375 -0.015625 C 1.007812 0.015625 0.921875 0.03125 0.828125 0.03125 C 0.609375 0.03125 0.4375 -0.046875 0.3125 -0.203125 C 0.195312 -0.359375 0.140625 -0.585938 0.140625 -0.890625 C 0.140625 -1.023438 0.148438 -1.160156 0.171875 -1.296875 C 0.203125 -1.441406 0.242188 -1.578125 0.296875 -1.703125 C 0.347656 -1.828125 0.410156 -1.941406 0.484375 -2.046875 C 0.566406 -2.160156 0.65625 -2.253906 0.75 -2.328125 C 0.84375 -2.410156 0.941406 -2.472656 1.046875 -2.515625 C 1.148438 -2.566406 1.257812 -2.59375 1.375 -2.59375 C 1.5 -2.59375 1.613281 -2.566406 1.71875 -2.515625 C 1.820312 -2.460938 1.910156 -2.390625 1.984375 -2.296875 L 2.15625 -3.703125 Z M 2.59375 -3.703125 "/></g></g></g><g fill="#084a5e" fill-opacity="1"><g transform="translate(77.576993, 25.06888)"><g><path d="M 1.4375 -2.265625 C 1.332031 -2.265625 1.234375 -2.238281 1.140625 -2.1875 C 1.054688 -2.144531 0.976562 -2.085938 0.90625 -2.015625 C 0.84375 -1.941406 0.785156 -1.851562 0.734375 -1.75 C 0.691406 -1.644531 0.65625 -1.53125 0.625 -1.40625 C 0.882812 -1.445312 1.09375 -1.484375 1.25 -1.515625 C 1.40625 -1.554688 1.523438 -1.601562 1.609375 -1.65625 C 1.691406 -1.707031 1.742188 -1.757812 1.765625 -1.8125 C 1.796875 -1.863281 1.8125 -1.921875 1.8125 -1.984375 C 1.8125 -2.015625 1.804688 -2.046875 1.796875 -2.078125 C 1.785156 -2.109375 1.765625 -2.132812 1.734375 -2.15625 C 1.703125 -2.1875 1.660156 -2.210938 1.609375 -2.234375 C 1.566406 -2.253906 1.507812 -2.265625 1.4375 -2.265625 Z M 2.15625 -0.46875 C 2.070312 -0.382812 1.988281 -0.304688 1.90625 -0.234375 C 1.820312 -0.171875 1.738281 -0.117188 1.65625 -0.078125 C 1.570312 -0.0351562 1.484375 -0.0078125 1.390625 0 C 1.296875 0.0195312 1.191406 0.03125 1.078125 0.03125 C 0.929688 0.03125 0.800781 0.0078125 0.6875 -0.03125 C 0.570312 -0.0820312 0.472656 -0.148438 0.390625 -0.234375 C 0.316406 -0.328125 0.253906 -0.4375 0.203125 -0.5625 C 0.160156 -0.695312 0.140625 -0.84375 0.140625 -1 C 0.140625 -1.125 0.15625 -1.25 0.1875 -1.375 C 0.21875 -1.507812 0.257812 -1.632812 0.3125 -1.75 C 0.363281 -1.875 0.425781 -1.984375 0.5 -2.078125 C 0.570312 -2.179688 0.65625 -2.269531 0.75 -2.34375 C 0.851562 -2.414062 0.960938 -2.472656 1.078125 -2.515625 C 1.203125 -2.554688 1.332031 -2.578125 1.46875 -2.578125 C 1.59375 -2.578125 1.703125 -2.554688 1.796875 -2.515625 C 1.890625 -2.484375 1.96875 -2.4375 2.03125 -2.375 C 2.09375 -2.320312 2.140625 -2.257812 2.171875 -2.1875 C 2.203125 -2.125 2.21875 -2.0625 2.21875 -2 C 2.21875 -1.894531 2.191406 -1.796875 2.140625 -1.703125 C 2.097656 -1.609375 2.015625 -1.519531 1.890625 -1.4375 C 1.773438 -1.363281 1.609375 -1.300781 1.390625 -1.25 C 1.179688 -1.195312 0.910156 -1.148438 0.578125 -1.109375 C 0.578125 -1.097656 0.578125 -1.082031 0.578125 -1.0625 C 0.578125 -1.039062 0.578125 -1.023438 0.578125 -1.015625 C 0.578125 -0.785156 0.625 -0.609375 0.71875 -0.484375 C 0.820312 -0.367188 0.972656 -0.3125 1.171875 -0.3125 C 1.253906 -0.3125 1.328125 -0.320312 1.390625 -0.34375 C 1.453125 -0.363281 1.503906 -0.382812 1.546875 -0.40625 C 1.597656 -0.425781 1.644531 -0.453125 1.6875 -0.484375 C 1.726562 -0.515625 1.765625 -0.539062 1.796875 -0.5625 C 1.828125 -0.582031 1.851562 -0.601562 1.875 -0.625 C 1.90625 -0.644531 1.929688 -0.65625 1.953125 -0.65625 C 1.984375 -0.65625 2.015625 -0.640625 2.046875 -0.609375 Z M 2.15625 -0.46875 "/></g></g></g></svg>